/* XPM */
static char *_0974e8b96b240baae2b3543be377952KCXq9mQOlCN1kVhi[] = {
/* columns rows colors chars-per-pixel */
"64 64 214 2 ",
"   c #78887E",
".  c #BEAB3C",
"X  c #E5B700",
"o  c #E6B802",
"O  c #EBBC02",
"+  c #E7BA09",
"@  c #E8BD0E",
"#  c #E9BE12",
"$  c #E2BE1C",
"%  c #D9BA29",
"&  c #D9AE3F",
"*  c #C9B034",
"=  c #CBB63B",
"-  c #D3BA33",
";  c #D3BC3A",
":  c #E3BB26",
">  c #E3B234",
",  c #EFC003",
"<  c #EFC40E",
"1  c #F3C303",
"2  c #F8C702",
"3  c #F7C807",
"4  c #FECC01",
"5  c #F3C60D",
"6  c #F6C80C",
"7  c #FDCD0A",
"8  c #ECC314",
"9  c #ECC31B",
"0  c #E9C51B",
"q  c #F1C611",
"w  c #F3C913",
"e  c #FECF12",
"r  c #FFD016",
"t  c #FDD01C",
"y  c #DFC12A",
"u  c #DBC337",
"i  c #E3C224",
"p  c #EDC622",
"a  c #EAC821",
"s  c #E1C42D",
"d  c #F0C827",
"f  c #F1C92A",
"g  c #FED224",
"h  c #FDD32B",
"j  c #E1C431",
"k  c #F5CE33",
"l  c #F6D037",
"z  c #FDD533",
"x  c #F7D13A",
"c  c #FCD53C",
"v  c #A59F56",
"b  c #A9A04E",
"n  c #B9AA47",
"m  c #BEB14C",
"M  c #B6AC56",
"N  c #B1AC5B",
"B  c #BAB459",
"V  c #999B67",
"C  c #8B9377",
"Z  c #909874",
"A  c #B79E64",
"S  c #A0927B",
"D  c #9FA672",
"F  c #A5A669",
"G  c #B7B464",
"H  c #BDBC65",
"J  c #BBBC6D",
"K  c #B4BA75",
"L  c #D29E59",
"P  c #C7A94A",
"I  c #C7B74A",
"U  c #D1BF43",
"Y  c #D6A157",
"T  c #C5BB56",
"R  c #CD9E66",
"E  c #C29A75",
"W  c #C3BD62",
"Q  c #DDBE77",
"!  c #D2C148",
"~  c #C9C056",
"^  c #D1C050",
"/  c #FCD642",
"(  c #FED845",
")  c #FFDA4A",
"_  c #E7C95F",
"`  c #3F6AB5",
"'  c #3F6ABB",
"]  c #5C7999",
"[  c #667D8B",
"{  c #627E98",
"}  c #476DAC",
"|  c #4D73AA",
" . c #5C7CA3",
".. c #416CB5",
"X. c #406DBC",
"o. c #4973B7",
"O. c #4271BD",
"+. c #5379B6",
"@. c #6D7AB2",
"#. c #5B5FD5",
"$. c #4E66CA",
"%. c #4F6ACA",
"&. c #526AC8",
"*. c #5069CA",
"=. c #4978C3",
"-. c #4E7EC9",
";. c #5C75CC",
":. c #5E63D5",
">. c #5A76D2",
",. c #5C78D4",
"<. c #6578C2",
"1. c #7975C6",
"2. c #6568D6",
"3. c #6972D8",
"4. c #6B74DD",
"5. c #6C79DC",
"6. c #747CD7",
"7. c #686FE1",
"8. c #6E77E0",
"9. c #6E79E1",
"0. c #717CE3",
"q. c #8379B9",
"w. c #6E8287",
"e. c #778884",
"r. c #788C91",
"t. c #7B9194",
"y. c #7B959C",
"u. c #5782BE",
"i. c #6685A8",
"p. c #6F91AC",
"a. c #7998A6",
"s. c #658AB2",
"d. c #6B94B7",
"f. c #7299B6",
"g. c #7AA1BF",
"h. c #5684C6",
"j. c #5B87C4",
"k. c #5A89C5",
"l. c #5384CC",
"z. c #5689CE",
"x. c #598CCE",
"c. c #5B91CC",
"v. c #5A8ED0",
"b. c #5D93D3",
"n. c #7985CC",
"m. c #6694C5",
"M. c #6394CC",
"N. c #7A89DC",
"B. c #6196D4",
"V. c #649AD6",
"C. c #699DD5",
"Z. c #649AD8",
"A. c #7A92D4",
"S. c #76A6C6",
"D. c #6BA5D7",
"F. c #7AADD7",
"G. c #75AEDD",
"H. c #77B0DA",
"J. c #778CE8",
"K. c #7B8EEA",
"L. c #7F91ED",
"P. c #74AEE2",
"I. c #76B1E3",
"U. c #79B5E5",
"Y. c #7CB9E7",
"T. c #7EBBE8",
"R. c #8B9A84",
"E. c #8F8B90",
"W. c #849C99",
"Q. c #B29689",
"!. c #A18F9D",
"~. c #8EA38D",
"^. c #96A483",
"/. c #8BA299",
"(. c #97AC96",
"). c #9AB59F",
"_. c #A4B487",
"`. c #A4B793",
"'. c #8980AC",
"]. c #8F8CBB",
"[. c #A093A5",
"{. c #88A5A6",
"}. c #96B5A8",
"|. c #83AAB0",
" X c #8BB2B8",
".X c #91B3B1",
"XX c #A8A5BB",
"oX c #EFDC8C",
"OX c #E8D290",
"+X c #C2C3BE",
"@X c #F2E6B0",
"#X c #8F8FD2",
"$X c #978FD8",
"%X c #9A92DB",
"&X c #82ADC8",
"*X c #82B2C8",
"=X c #8685EB",
"-X c #8A8AE9",
";X c #908DE2",
":X c #918FEC",
">X c #8194EE",
",X c #9590E3",
"<X c #9091EF",
"1X c #908FF0",
"2X c #9092F1",
"3X c #9496F4",
"4X c #84BCE5",
"5X c #A2AAE3",
"6X c #ACB7EB",
"7X c #C6C6D5",
"8X c #DCDED1",
"9X c #EAEDE7",
"0X c #E3E7F2",
"qX c #FAFBFB",
/* pixels */
"qX6X3X3X3X3X3X3X3X3X3X3X2X2X2X2X2X<X<X<X2X2X1X:X:X:X,X%X%X$X7X9X9X7X$X$X;X-X-X-X-X-X-X-X-X-X-X-X=X=X=X=X=X=X=X=X=X=X=X=X=X=X5XqX",
"6X4XT.T.T.Y.U.U.U.U.U.I.I.I.I.I.I.G.P.P.P.G.F. X}._.K H T T I ^ ^ T T H K _.(.|.S.D.D.C.C.C.C.C.Z.Z.Z.Z.V.V.V.B.B.B.b.b.b.b.B.5X",
">XT.T.T.T.U.U.U.U.U.U.I.I.I.I.I.I.G.G.F. X`.J ! u a w 6 3 3 7 4 7 7 3 6 w 0 y U B _.{.S.C.C.Z.Z.Z.Z.Z.V.V.V.V.B.B.B.b.b.b.b.b.9.",
">XT.T.T.U.U.U.U.U.U.I.I.I.I.I.I.H.*X}.J ! a w 4 4 4 4 4 4 4 4 7 7 7 4 4 4 4 4 4 6 0 u G (.g.C.Z.Z.Z.V.V.B.B.B.B.b.b.b.b.b.b.b.9.",
">XT.U.U.U.U.U.U.I.I.I.I.I.P.G.*X).H u w 4 4 4 4 4 4 4 4 4 7 g h h h h g t t e 7 4 4 4 w s T (.S.Z.V.V.B.B.B.B.b.b.b.b.b.b.b.b.9.",
">XY.U.U.U.U.U.I.I.I.I.I.P.H..XJ u w 4 4 4 4 4 4 4 4 4 4 4 7 c ) ) ) ) ) ( c z h g e 7 4 4 6 s G {.m.B.B.b.b.b.b.b.b.b.b.b.b.b.9.",
">XU.U.U.U.I.I.I.I.I.I.I.*X`.! w 4 4 4 4 4 4 4 4 4 4 4 4 4 e c ) ) ) ) ) ) ) ) ) ( c h t 7 4 4 w ; _.f.B.b.b.b.b.b.b.b.b.b.b.b.9.",
">XU.U.U.I.I.I.I.I.P.G.*XK s 3 4 4 4 4 4 4 4 4 4 4 4 4 4 4 e c ) ) ) ) ) ) ) ) ) ) ) ) c h t 7 4 7 i G a.M.b.b.b.b.b.b.b.b.v.v.9.",
"L.U.I.I.I.I.I.I.P.G. XH a 4 4 4 4 4 4 4 4 4 4 4 4 4 4 4 2 w k x x x / / ) ) ) ) ) ) ) ) ) c h e 4 4 8 T /.M.b.b.b.b.b.v.v.v.v.8.",
"L.U.I.I.I.P.P.P.G..X~ w 4 4 4 4 4 4 4 4 4 4 4 4 2 1 1 , O O # 8 8 9 9 p f k l / ) ) ) ) ) ) ) z t 4 4 w I /.M.b.b.b.v.v.v.v.v.8.",
"L.I.I.I.P.P.P.G..X~ w 4 4 4 4 4 4 4 4 4 4 2 1 , O o o o o X X X X X o o + @ 8 p k x ) ) ) ) ) ) c g 7 4 6 U /.M.v.v.v.v.v.v.x.8.",
"L.I.P.P.P.P.G..X~ w 4 4 4 4 4 4 4 4 4 2 1 O o o X X X X X X X X X X X X X X X o @ 9 f c ) ) ) ) ) c g 7 4 6 I W.M.v.v.v.x.x.x.4.",
"K.I.P.P.P.G. XW w 4 4 4 4 4 4 4 4 4 1 O o o X X X X X X X X X X X X X X X X X X X o + 9 k / ) ) ) ) ( g 7 4 5 I a.x.v.v.v.x.z.4.",
"K.P.P.P.P.&XK 0 4 4 4 4 4 4 4 4 2 1 o o X X X X X X X X X X X X X X X X X X X X X X X o # f / ) ) ) ) ( g 7 4 8 N f.x.v.v.x.z.4.",
"K.P.P.P.F.`.s 4 4 4 4 4 4 4 4 2 , o X X X X X X X X X X X X X X X X X X X X X X X X X X X @ p x ) ) ) ) c g 4 4 i D m.v.x.z.z.5.",
"K.P.P.G..X! 3 4 4 4 4 4 4 4 2 , o X X X X X X X X X X X X X X X X X X X X X X X X X X X X X + 9 x ) ) ) ) c t 4 7 - W.x.z.z.z.4.",
"K.G.G.&XJ w 4 4 4 4 4 4 4 2 , o X X X X X X X X X X X X X X X X X X X X X X X X X X X X X X X o 9 x ) ) ) ) z e 4 5 B d.z.z.z.4.",
"K.G.F.`.j 4 4 4 4 4 4 4 2 , o X X X X X X X X X X X X X X X X X X X X X X X X X X X X X X X X X + p c ) ) ) ) h 7 4 i ^.k.z.l.4.",
"K.G.&XW w 4 4 4 4 4 4 4 1 o X X X X X X X X X X X X X X X X X X X o o o X X X X X X X X X X X X X + f / ) ) ) c t 4 3 I p.l.l.3.",
"J.G.).j 4 4 4 4 4 4 4 1 o X X X X X X X X X X X X X X X X X X X o O 1 1 o X X X X X X X X X X X X X # k ) ) ) ) h 7 4 i ^.j.h.3.",
"J.S.J w 4 4 4 4 4 4 2 O o X X X X X X X X X X X X X X X X X o o 1 2 4 2 O o X X X X X X X X X X X X o 9 x ) ) ) c t 4 6 M s.h.3.",
"J.|.u 7 4 4 4 4 4 4 1 o X X X X X X X X X X X X X X X X X o O 1 2 4 4 4 1 o X X X X X X X X X X X X X + f / ) ) ) h 7 4 % W.h.4.",
"N._.a 4 4 4 4 4 4 2 O o X X X X X X X X X o o o o o o o o 1 2 4 4 4 4 4 2 O o X X X X X X X X X X X X o 8 x ) ) ) c e 4 8 F j.7.",
"#XH w 4 4 4 4 4 4 1 o X X X X X X X X o O O , , 1 1 1 1 1 4 4 4 e g r 4 4 1 o X X X X X X X X X X X X X + f ) ) ) ( g 4 6 m s.7.",
"].! 7 4 4 4 4 4 2 O o X X X X X X X o O 2 2 2 2 4 4 4 4 4 4 7 t z ( h 4 4 1 o X X X X X X X X X X X X X o 9 / ) ) ) z 7 4 - a.4.",
"[.s 4 4 4 4 4 4 2 O X X X X X X X X o O 2 4 4 4 4 4 4 4 4 7 g c ) ) c e 4 2 O o X X X X X X X X X X X X X # k ) ) ) c e 4 i R.3.",
"Q.0 4 4 4 4 4 4 1 o X X X X X X X X X O 2 4 4 4 4 4 4 4 4 7 z ) ) ) ( g 4 4 1 o X X X X X X X X X X X X X + f ) ) ) / t 4 8 D 3.",
"E w 4 4 4 4 4 4 1 o X X X X X X X X X o 1 4 4 4 4 4 4 4 4 e c ) ) ) ) z 7 4 2 1 o X X X X X X X X X X X X o p / ) ) ) g 4 5 N 1.",
"R 3 4 4 4 4 4 4 O o X X X X X X X X X o 1 4 4 4 4 4 4 4 4 e c ) ) ) ) ( t 4 4 2 1 O o X X X X X X X X X X o 9 / ) ) ) h 4 3 m 1.",
"L 4 4 4 4 4 4 2 O o X X X X X X X X X o O 2 4 4 4 4 4 4 4 e c ) ) ) ) ) c t 7 4 4 1 O o X X X X X X X X X o 8 x ) ) ) h 7 7 = q.",
"Q 7 4 4 4 4 4 2 O X X X X X X X X X X X O 2 4 4 4 4 4 4 4 e c ) ) ) ) ) ) c g 7 4 4 1 O o X X X X X X X X X # l ) ) ) z 7 4 = XX",
"@X6 4 4 4 4 4 2 O X X X X X X X X X X X o 1 4 4 4 4 4 4 4 e c ) ) ) ) ) ) ) ( h e 4 4 2 1 o X X X X X X X X # l ) ) ) z 7 4 - 8X",
"@X6 4 4 4 4 4 2 O X X X X X X X X X X X o 1 4 4 4 4 4 4 4 e c ) ) ) ) ) ) ) ) ( g 4 4 4 1 o X X X X X X X X @ l ) ) ) z 7 4 - 8X",
"OX7 4 4 4 4 4 2 O X X X X X X X X X X X o 1 4 4 4 4 4 4 4 e c ) ) ) ) ) ) ) ) z e 4 4 2 1 o X X X X X X X X @ l ) ) ) z 7 4 - +X",
"Y 4 4 4 4 4 4 2 O X X X X X X X X X X X o 2 4 4 4 4 4 4 4 e c ) ) ) ) ) ) ( h e 4 4 2 1 o X X X X X X X X X # l ) ) ) z 7 4 - '.",
"Y 4 4 4 4 4 4 2 O o X X X X X X X X X o O 2 4 4 4 4 4 4 4 e c ) ) ) ) ) c g 7 4 4 1 O o X X X X X X X X X X 8 x ) ) ) z 7 7 = q.",
"R 3 4 4 4 4 4 2 O o X X X X X X X X X o 1 4 4 4 4 4 4 4 4 e c ) ) ) ) ( g 7 4 4 1 O o X X X X X X X X X X o 9 / ) ) ) h 4 3 m 1.",
"E 6 4 4 4 4 4 4 1 o X X X X X X X X X o 1 4 4 4 4 4 4 4 4 e c ) ) ) ) z 7 4 4 1 O o X X X X X X X X X X X o p / ) ) ) g 4 5 M 1.",
"Q.0 4 4 4 4 4 4 1 o X X X X X X X X X O 2 4 4 4 4 4 4 4 4 e c ) ) ) ) g 4 4 1 o X X X X X X X X X X X X X + f ) ) ) / t 4 8 F 3.",
"!.i 4 4 4 4 4 4 1 O X X X X X X X X o O 2 4 4 4 4 4 4 4 4 7 h ( ) ) c r 4 2 O o X X X X X X X X X X X X X # k ) ) ) c e 4 $ C 2.",
"].; 7 4 4 4 4 4 2 O o X X X X X X X o O 2 4 4 4 4 4 4 4 4 4 7 g c ) h 7 4 1 o X X X X X X X X X X X X X o 9 / ) ) ) z 7 4 % r.2.",
"n.B 6 4 4 4 4 4 4 1 o X X X X X X X X o O O , 1 1 1 1 1 2 4 4 4 t h t 4 4 1 o X X X X X X X X X X X X X + f / ) ) ) g 4 1 n i.2.",
"6.^.0 4 4 4 4 4 4 2 O o X X X X X X X X o o o o o o o o O 1 2 4 4 7 4 4 2 O o X X X X X X X X X X X X X # l ) ) ) c t 4 8 V +.2.",
"0.{.; 4 4 4 4 4 4 4 1 o X X X X X X X X X X X X X X X X o o O 1 4 4 4 4 1 o X X X X X X X X X X X X X + d / ) ) ) z 7 4 % e.o.2.",
"9.m.G q 4 4 4 4 4 4 2 O o X X X X X X X X X X X X X X X X X o O 1 2 4 2 O o X X X X X X X X X X X X o 9 x ) ) ) / t 4 6 n  .=.2.",
"9.M.~.y 4 4 4 4 4 4 4 1 o X X X X X X X X X X X X X X X X X X X o O 1 1 o X X X X X X X X X X X X X @ k ) ) ) ) z 7 4 $ C o.=.2.",
"5.c.f.B 6 4 4 4 4 4 4 4 1 o X X X X X X X X X X X X X X X X X X X o o o o X X X X X X X X X X X X + p / ) ) ) c t 4 3 . { o.O.:.",
"5.c.M.~.% 4 4 4 4 4 4 4 2 O o X X X X X X X X X X X X X X X X X X X X X X X X X X X X X X X X X o 9 x ) ) ) ) h 7 4 $ C | O.O.:.",
"5.c.x.d.G 8 4 4 4 4 4 4 4 2 O o X X X X X X X X X X X X X X X X X X X X X X X X X X X X X X X o 9 l ) ) ) ) z e 4 5 n ] ..X.O.:.",
"5.x.x.x.W.= 3 4 4 4 4 4 4 4 1 O o X X X X X X X X X X X X X X X X X X X X X X X X X X X X X o 9 l ) ) ) ) c t 4 7 %   ..X.X.O.:.",
"5.x.x.x.m.^.y 4 4 4 4 4 4 4 4 2 O o X X X X X X X X X X X X X X X X X X X X X X X X X X X + 9 l ) ) ) ) c g 7 4 $ V | ..X.X.X.:.",
"5.x.x.x.x.d.F 0 4 4 4 4 4 4 4 4 2 1 o o X X X X X X X X X X X X X X X X X X X X X X X o @ p x ) ) ) ) / g 7 4 8 b ] ..X.X.X.O.:.",
"5.x.x.x.x.x.p.M 8 4 4 4 4 4 4 4 4 2 1 O o X X X X X X X X X X X X X X X X X X X X o + 9 k / ) ) ) ) / g 7 4 5 n [ } ` ` X.X.X.:.",
"5.x.x.x.x.z.x.a.m q 4 4 4 4 4 4 4 4 4 2 1 O o o X X X X X X X X X X X X X X X o + # f x ) ) ) ) ) c g 7 4 5 . w.} ` ` ` ' X.X.:.",
"5.x.x.x.x.z.z.k.y.I q 4 4 4 4 4 4 4 4 4 4 1 1 O o o o X X X X X X X X X o + @ 9 f l / ) ) ) ) ) c g 7 4 5 * e.} ` ` ` ' ' X.X.:.",
"5.x.x.x.z.z.z.z.k.y.m 8 4 4 4 4 4 4 4 4 4 4 4 2 1 1 O O o O + @ @ # # 9 p f k c / ) ) ) ) ) ) z t 4 4 < . e.} ......` ' ' X.X.:.",
"4.x.z.z.z.z.z.l.l.j.y.M 0 4 4 4 4 4 4 4 4 4 4 4 4 4 2 2 1 5 f k l l x / / ) ) ) ) ) ) ) ) c h e 4 4 8 n w.} ......` ` ' ' ' X.:.",
"4.z.z.z.z.z.l.l.l.l.h.p.F : 7 4 4 4 4 4 4 4 4 4 4 4 4 4 4 e c ) ) ) ) ) ) ) ) ) ) ) ) / z t 7 4 7 $ v { ..........` ' ' ' ' X.:.",
"4.z.z.z.z.z.z.l.l.l.l.h.s.Z = q 4 4 4 4 4 4 4 4 4 4 4 4 4 e c ) ) ) ) ) ) ) ) ) ) c z t 7 4 4 5 - Z  ...X.X.X.X.X.' ' X.X.' X.:.",
"4.z.z.l.z.z.z.l.l.l.l.l.l.u.t.N % 6 4 4 4 4 4 4 4 4 4 4 4 e c ) ) ) ) ) ) ( c z h t 7 4 4 6 $ n e.| X.X.X.X.X.X.X.X.X.X.X.' X.:.",
"3.z.l.l.l.l.l.l.l.l.l.l.-.-.h.s.R.m : 6 4 4 4 4 4 4 4 4 4 7 h z z z z h g t e 7 4 4 4 6 $ n C  .o.' ' X.X.X.X.X.X.X.X.X.X.' ' :.",
"3.l.l.l.l.l.l.l.l.l.l.-.-.-.-.-.u.i.R.M % 8 6 4 4 4 4 4 4 4 7 7 7 7 7 7 4 4 4 4 7 8 % n C { o.O.O.O.X.X.X.X.X.X.X.X.X.X.X.' ' #.",
"N.l.l.l.l.l.l.l.l.l.-.-.-.-.-.-.-.-.u.s.t.V m % 0 5 6 7 4 4 4 2 2 2 4 7 6 5 0 % P V e. .o.O.O.O.O.O.O.X.X.X.X.X.X.X.X.X.X.' X.6.",
"0XA.>.>.,.,.,.,.,.,.,.,.,.,.,.,.,.,.>.>.;.<.@.E.^.A P & > > _ oXoX_ > & P A S E.@.@.&.&.&.%.&.%.%.%.%.%.%.&.&.&.&.&.&.&.$.$.n.0X"
};