/* XPM */
static char *_d2fe7bac302436acb9b615fa0398b0bDHYJLedsqHy1RSTa[] = {
/* columns rows colors chars-per-pixel */
"64 64 241 2 ",
"   c #7A5658",
".  c #7F625F",
"X  c #4C5A64",
"o  c #5E5C7D",
"O  c #775D66",
"+  c #625D7D",
"@  c #556A75",
"#  c #786767",
"$  c #68647B",
"%  c #746971",
"&  c #69757B",
"*  c #77747B",
"=  c #87625E",
"-  c #895D67",
";  c #876565",
":  c #956A68",
">  c #98746B",
",  c #866B78",
"<  c #946C79",
"1  c #877579",
"2  c #98747A",
"3  c #AA716E",
"4  c #A8786A",
"5  c #A87975",
"6  c #B87679",
"7  c #C57A7B",
"8  c #998178",
"9  c #B5816E",
"0  c #AA8376",
"q  c #B78876",
"w  c #AB917F",
"e  c #B9937C",
"r  c #C48C76",
"t  c #C4947B",
"y  c #C9957B",
"u  c #D69B7D",
"i  c #3F659D",
"p  c #3D66A8",
"a  c #3E69AD",
"s  c #3E6AB3",
"d  c #3F6CBA",
"f  c #5A5B83",
"g  c #566C89",
"h  c #446799",
"j  c #656987",
"k  c #6D7782",
"l  c #72748F",
"z  c #697799",
"x  c #446BAB",
"c  c #4872AC",
"v  c #517AAE",
"b  c #416CB5",
"n  c #416EBC",
"m  c #4874B7",
"M  c #4571BB",
"N  c #557CBB",
"B  c #6E7DA3",
"V  c #416DC1",
"C  c #4B79C2",
"Z  c #4E7ECC",
"A  c #517EC9",
"S  c #4E7FD0",
"D  c #8B7B86",
"F  c #9C7482",
"G  c #977B88",
"H  c #957F93",
"J  c #A57A88",
"K  c #A57B8A",
"L  c #A37E90",
"P  c #CD7C81",
"I  c #55868A",
"U  c #528F92",
"Y  c #59969A",
"T  c #688389",
"R  c #78878A",
"E  c #688D92",
"W  c #63969B",
"Q  c #7B9497",
"!  c #569DA2",
"~  c #5B9EA2",
"^  c #5983BA",
"/  c #6984A8",
"(  c #7986A9",
")  c #649DA3",
"_  c #699FA4",
"`  c #7295AD",
"'  c #6587B6",
"]  c #7895B9",
"[  c #5CA4A9",
"{  c #5EACB2",
"}  c #5FB0B5",
"|  c #66A5A9",
" . c #6CABAD",
".. c #76A9AA",
"X. c #64B0AD",
"o. c #63AEB3",
"O. c #63B5BB",
"+. c #65B4B8",
"@. c #78B9B7",
"#. c #7EC1BE",
"$. c #4F81C9",
"%. c #5283C4",
"&. c #5B86C7",
"*. c #5384CB",
"=. c #5689CD",
"-. c #5A8BCE",
";. c #5D91CF",
":. c #4F80D0",
">. c #558AD2",
",. c #5B8ED1",
"<. c #5E92D3",
"1. c #5E94DB",
"2. c #638CC8",
"3. c #718FC0",
"4. c #6897CA",
"5. c #789DC8",
"6. c #618DD1",
"7. c #6295D5",
"8. c #6799D3",
"9. c #6A9BD5",
"0. c #6397DA",
"q. c #659BDA",
"w. c #6B9BD9",
"e. c #749CD3",
"r. c #75A1CA",
"t. c #65A1DE",
"y. c #6CA5DC",
"u. c #76A5D6",
"i. c #72AADD",
"p. c #6EAAE2",
"a. c #69A9E4",
"s. c #73AEE3",
"d. c #79ADE0",
"f. c #75B1E5",
"g. c #78B4E6",
"h. c #7AB6E8",
"j. c #7CB9E9",
"k. c #7DC9C5",
"l. c #888289",
"z. c #95858B",
"x. c #8C8792",
"c. c #988A94",
"v. c #84989A",
"b. c #999497",
"n. c #A7838B",
"m. c #B19584",
"M. c #A68694",
"N. c #AC8492",
"B. c #AD8B94",
"V. c #B48A99",
"C. c #B58A99",
"Z. c #A4959C",
"A. c #B3929B",
"S. c #B8959C",
"D. c #93A49A",
"F. c #BCA796",
"G. c #868BA8",
"H. c #8E8DA8",
"J. c #979AA3",
"K. c #8996B9",
"L. c #969ABA",
"P. c #AD98A4",
"I. c #BD93A2",
"U. c #BC9BA5",
"Y. c #86A7A7",
"T. c #8FADB1",
"R. c #89B7B5",
"E. c #AEA9AD",
"W. c #BCA2A7",
"Q. c #A7A8B5",
"!. c #B7ACB5",
"~. c #B9B2B9",
"^. c #CA8C86",
"/. c #C89A83",
"(. c #D39C85",
"). c #D19092",
"_. c #E58E94",
"`. c #CDA285",
"'. c #D3A585",
"]. c #D8A988",
"[. c #DDB38E",
"{. c #CCA793",
"}. c #D5AC92",
"|. c #D9AE90",
" X c #DBB192",
".X c #E8AD8A",
"XX c #E6B58D",
"oX c #E5BA93",
"OX c #E8BC94",
"+X c #C195A4",
"@X c #C59CA6",
"#X c #D79DA7",
"$X c #C5A3AB",
"%X c #C5A5A9",
"&X c #C3ABB5",
"*X c #CBABB2",
"=X c #D6ACB5",
"-X c #E9A9B5",
";X c #EFAAB6",
":X c #F2AEBB",
">X c #84C2BD",
",X c #95C5BE",
"<X c #EDC196",
"1X c #F4C598",
"2X c #F6CA9B",
"3X c #FACD9D",
"4X c #FED19F",
"5X c #F8CEA2",
"6X c #FFD3A0",
"7X c #8F9CC1",
"8X c #90ACCF",
"9X c #AFB1C7",
"0X c #C7B8C5",
"qX c #F7B3C0",
"wX c #84CAC4",
"eX c #86CAC5",
"rX c #91CEC7",
"tX c #86D3CD",
"yX c #8BD3CD",
"uX c #92D5CD",
"iX c #8ED6D1",
"pX c #8DDAD2",
"aX c #97DAD3",
"sX c #92DCD4",
"dX c #B4C9D5",
"fX c #B7CBDC",
"gX c #94E0D7",
"hX c #95E3DA",
"jX c #99E6DC",
"kX c #9BE9DF",
"lX c #A0E9DF",
"zX c #B7CEE4",
"xX c #9FEAE0",
"cX c #CCD5D6",
"vX c #C9DAE5",
"bX c #D4E3E6",
"nX c #DAE6E6",
"mX c #DEEAE9",
"MX c #D2EAF7",
"NX c #EAF4F1",
"BX c #E8F8FA",
/* pixels */
"j.j.j.j.h.h.h.g.g.g.g.f.g.f.s.s.s.s.s.s.s.s.s.s.u.' j o o + j j j j j + + j z 2.q.t.t.q.t.t.q.q.q.0.0.0.0.0.0.0.7.0.7.7.8.9.9.<.",
"j.j.j.j.h.h.h.g.g.g.g.f.g.f.s.s.s.s.s.s.s.u.' z l z ( K.7X9X9X9X9X9X9X9X7XG.z o j ' y.q.q.q.q.q.q.0.0.0.0.0.0.8.0.0.7.9.9.9.7.<.",
"j.j.j.j.h.h.h.g.g.g.f.f.f.f.s.s.s.s.f.i./ j z K.9X9X!.@X@X@X@X#X#X@X@X@X$X*X&XQ.( j l 5.y.q.q.0.q.0.0.0.0.7.7.7.0.7.8.9.9.7.<.<.",
"j.j.j.h.h.h.h.g.g.f.f.f.f.s.s.s.s.s.4.j j K.9X&X@X@X#X-X-X-X#X#X#X#X-X;X-X#X+X@X&XQ.z $ L.u.0.0.0.0.0.0.7.0.0.0.0.9.9.8.7.<.<.<.",
"h.h.h.g.g.g.g.f.f.f.f.f.f.s.s.s.s.' o ( 9X*X@X@X-X-X#X^.^.(.].].].].'.(.#X-X:X#XI.@XP.( $ Q.8X0.8.7.0.7.0.0.7.0.9.9.8.7.<.;.;.;.",
"h.h.g.g.g.g.f.f.f.f.f.s.s.s.s.s.B j 7X0X*X@X-X-X).^.].OX2X3X3X3X3X4X4X3XOX|.#X:X-X+XU.M.G.$ Q.8X7.0.0.0.0.7.7.7.9.9.7.<.<.;.;.;.",
"h.g.g.g.f.g.f.f.f.f.f.s.s.s.s./ j 8X0X$X=X:X).^..X1X3XOX`.0 > 4 9 t '.oX3X4X<X{.;X:X@XI.M.B $ 9Xu.7.0.0.0.7.7.9.9.8.7.<.<.;.;.;.",
"g.f.f.f.f.f.f.f.s.s.s.s.s.s.' + 7X0X@X-X-X^.(.1X1X`.0 1 R Q v.v.l.* ; 4 t XX4X2X(.;X:X+XU.L ( cXvX9.7.7.0.7.9.7.7.<.<.<.<.<.<.<.",
"f.f.f.f.f.s.f.f.s.s.s.s.s.e.o K.0X@X-X-X^..X2X].> v.,XsXjXkXkXkXkXsX>XR ; 9 '.3X1X).:X-XU.S.c.fXnX8X<.7.0.0.w.0.<.<.<.<.,.,.,.,.",
"f.f.f.f.f.s.s.s.s.s.s.s.s.j z 9X@X-X-X^..X2Xe R ,XsXtX@.+.wXjXpXk.wXpXgXR.% 4 /.3XoX).:X@X@XN.L.bXzX7.7.0.w.7.<.<.<.<.,.,.,.,.,.",
"f.f.f.f.f.s.s.s.s.s.s.s.' j 8X@X#X:X^..X2X0 R uXwXX.~ E E  .sXE W  .+.@.sXwX% 4 '.4X(.-X-XU.I.H fXnX8X<.7.7.<.<.<.<.,.,.,.-.-.-.",
"f.f.f.f.s.s.s.s.s.s.s.s.l ] !.#XqX).].<Xq R wX@.Y k , J G @.yXD J G Q  .@.yX@.# 9 OXOX^.:X+X@XL 9XmXfX7.<.<.<.<.,.,.,.,.,.-.-.-.",
"f.f.f.f.s.s.s.s.p.p.s.5.j 8X$X:X#Xu XX0 * R.@.I , J J +XM.@.yXG I.+XC.x. .@.pX_ ; y 3X^.;X#XU.C.L.bXvX9.,.,.,.,.,.,.-.-.-.-.-.-.",
"f.s.s.s.s.s.s.s.p.p.s./ ( 9X=X:X^.XXt # R.@.E , 2 C.C.I.c.@.yXG I.+X+XS.D @.wXk.& 4 <X]._.-XI.I.H.vXbXu.,.,.,.,.,.-.-.-.-.-.-.-.",
"s.s.s.s.s.s.i.i.p.p.p.z 7X&X:X#X(.XX> v.yXW * L S.N.S.+Xc.@.yXG I.+X+XC.J T.wXtXW = [.XX).;XS.@XH fXmX8X,.,.,.,.,.-.=.=.=.=.=.=.",
"s.p.s.s.s.i.i.i.4./ B $ 8X@XqX)..Xy ; rX#.T J I.+XI.S.+Xc.@.yXD C.+XS.B.+Xb.rXwX+.# y OX^.;XC.I., H.!.5.,.,.,.,.,.-.=.=.=.=.=.=.",
"s.s.p.s.i.i.i.r.$ z z / L.N.+Xn./.> % wXX.* N.+X+X+X+XC.D @.yX, F N.I.+XI.n.R.@.) O 4 /.6 ^.5 n., < , l 8Xu.>.>.>.=.=.=.=.=.=.=.",
"s.s.p.p.i.y.i.5.l 7XQ.&XU.S.%X*X*XB.J E Y * J C.+X+XI.B.z.R.yXG J F N.+XS.B.T.Y.U.M.S.S.A.A.B.%XA.C.N.1 nXfX,.>.>.=.=.=.=.=.=.=.",
"s.p.p.p.i.i.i.5.j L.U.=X%XW.%X*X=XS.M.I U 1 +X+X+XC.N.I.c.>XyXG +XN.F S.+XS.v.J.=XU.=X*X$XW.U.%XI.N.N.1 nXzX<.>.>.=.=.=.=.=.=.=.",
"p.p.p.p.i.i.d.u.j l c.A.B.B.B.A.A.2 , U U E c.b.b.x.b.b.v.rXsXv.b.b.l.c.b.c.R.R.Z.M.A.U.B.B.B.N.F < O E.mXfX>.>.>.=.=.=.*.*.*.*.",
"i.i.i.p.i.i.y.y.4.$ H.N.N.N.N.C.J - @ [ [ k.wXpXpXpXpXpXsXjXjXgXsXsXsXsXsXsXgXyX..% 2 n.C.C.S.J N.2 , bXvXe.>.,.>.=.=.*.*.*.*.*.",
"u.y.i.s.i.y.t.t.y.j G.A.+XI.C.+XS.; R k.[ E T T T T T T E wXuXQ E E E E E Q ..yXwX* 5 W.*X@X%XB.J ; b.mXzX6.,.,.-.=.*.*.*.*.*.*.",
"u.u.i.i.p.t.a.t.y.j ( P.n.n.J J 2 : Q tX[ , ; : : : : < D #.R.< J , @ & J J x.uX#.% 4 0 5 0 0 < , , bXbX8X&.&.=.=.=.=.*.*.*.*.*.",
"u.u.i.i.a.a.a.t.y.j G.!./.y XX4 > t v.wX~ , /.[.].].y 5 l.>XR.J I.F D < N.+XJ.aX#.% t '.4 y (.N.J z.mXdX' ^ ^ &.&.=.*.*.*.*.*.*.",
"u.u.y.y.t.a.t.y.u.j G.&X}.[.2X'.y `.v.wX~ , |.6XoX<Xu 5 l.>XR.J x.v.).1 T A.J.yX@.% t 1X[.1X}.B.J z.nXvX7X/ ^ &.%.%.*.*.*.*.*.*.",
"u.u.y.t.t.t.t.9.r.j J.*X|.6X4X4X3X'.v.wX~ , /.4X[.XXq J z.#.R.F ..X.U Y Y M.J.yX@.% t 3X6X6X}.B.J z.mXMXzXK.' ^ ^ %.%.*.*.*.*.*.",
"u.9.w.t.t.t.q.9.r.l !.*X|.2X3X3X6X'.v.wXY D n.2XXXu > C.x.>XR.F Q { U Y T J J.yX| # t 3X4X3X}.B.J z.nXNXMXzX] ^ ^ %.%.*.*.*.*.*.",
"e.9.q.t.t.q.9.r.8XD ~.*X|.XX<X1X6X`.v.wXY D N.|..X4 2 C.x.>XR.J z.W U I , C.J.yX~ # t 3X2X<X}.C.J z.mXNXBXMX8X' ^ %.$.*.$.$.*.:.",
"u.y.t.a.t.q.9.8XzXx.~.*X|.[.OX<X6X`.v.wXY D C.n.5 2 I.J l.wXR.J C.M.D , D M.J.yX .# t 4X2XoX}.C.J c.mXNXBXBXzX] ^ %.%.$.*.:.:.:.",
"9.t.t.t.t.8.e.8XzXx.!.%X|.XX[.[.2X`.v.wXY , 6 < J A.*Xn.D wXR.F +XJ C.x.} T v.yX@.# t 4X2XOX}.A.J c.mXNXBXBXMX5.v %.%.%.$.Z Z S ",
"w.q.t.t.q.8.e.8XzXD ~.%X X1X1X<X<X`.v.wXY , 7 6 S.C.N.J x.wXT.J :XC.C.M.) l v.yX@.# t 4X3X3X}.@XJ c.mXNXBXBXMX5.v %.$.$.$.Z Z Z ",
"q.q.t.q.8.4.5.8XzXD ~.%XoX6X4X4X3X`.v.wXY * 2 J C.B.N.B.x.yXR.< J J C.C.J N.v.tX@.# y 3X2X4X}.$XJ c.mXNXBXBXMX5.v ^ %.%.$.Z Z Z ",
"w.w.w.8.8.4.5.8XzXD ~.%XoX6X4X4X6X/.v.rXT T Q v.v.Q v.Y.R.jXaXR.R.R.R.R.Y.Y...yXwX# y 4X4X4X}.$XJ c.mXNXBXBXvX] c m C %.*.Z Z Z ",
"w.w.w.9.4.4.4.8XzXz.0X%XoX6X6X4X4X/.v.sXR.iXsXsXsXsXsXgXjXjXjXjXjXsXiXyX#.#.yXuX@.# y 4X4X4X{.$XJ c.mXNXNXBXfX/ h c m %.A A Z Z ",
"w.w.9.9.4.4.4.5.8XD 0X%XoX6X6X6X6X/.v.gX>XpXjXkXkXsXT.D.D.D.v.b.b.>XyXyXyXpX,Xw 1   /.4X4X4X{.$XJ b.mXNXNXBX8Xg h c m C C A Z Z ",
"w.w.9.8.4.4.4.4.5.l 9X%XoX6X6X6X6X/.v.jXyXsXjXjXkXrXe r r r r r 4 ..gXkX,Xb.z.4 =   /.4X4X4X{.$XJ b.mXNXBXfX/ h h x m m C Z Z Z ",
"0.0.0.7.8.7.4.4.] $ Q.%XOX6X4X4X6X/.Y.kXgXpXjXjXkX,Xe q 4 ]..Xu 5 W pXjXD.> 0 ; ;   /.4X4X4X{.$XJ b.mXNXvX` h h x x b m C &.*.Z ",
"0.0.0.0.0.7.7.4.2.+ H.W.OX6X4X4X6Xt Y.kXgXwXjXkXxX,Xm.9 4 r y r 5 ..jXkXuX@. .E g O /.<X2X4X{.$XJ Z.mXfX` g h h p a b m A &.*.Z ",
"0.0.0.0.1.<.;.7.4.+ G.W.OX6X4X4X6Xt Y.kXgXwXkXlXkXyXR 1 > 1 1 1 k wXjXjXjXkXrXm.8   /.|.[.3X{.$XJ Z.nXK.h h x p p a b m %.A C C ",
"1.0.0.1.1.<.;.;.6.o G.U.OX6X4X2X3Xe Y.kXsXwXkXlXjXjXk.X.~ ) | X.k.jXpXyXpXjXR.0 >   `.3X3X4X{.$XF Z.nX/ h i p a a a c m N M C C ",
"1.1.1.1.<.<.<.<.-.o K.W.OX6X1X].<Xe Y.kXhXwXgXgXgXgXgXpXwXtXpXpXgXpXtXpXwXpXyX_ T . y 2X3X4X{.$XF Z.nX/ i p p a x c m M M M M C ",
"<.<.<.<.1.<.<.<.2.+ K.%X<X6X1Xw `.q Y.xXkXR. . . . . . . . . . . . . . .W | +.O.X.# e oX2X4X{.@XF Z.bX' p p p x m c c b b M M M ",
"<.<.<.<.7.7.<.<.2.+ K.b.m.[.w Y R 3 Y.xXkXaXrXrXrXrXrXrXrXrXrXrXrXrXrXuX@.[ +.O.| # '.4X2XOX/.@XF Z.bX' p p x c c c x s b M M M ",
"<.<.<.<.<.7.7.<.2.+ z Y Y & k ! T : T.xXsXtXwXwXwXwXwXwXwXwXwXwXwXwXk.#. .~ o.O.[ # '.4X3X3X{.@XF Z.bX' p x c c c x a s b M M M ",
"<.<.<.<.<.<.<.<.-.+ z Y U I @ U * 3 R.gX| I Y Y W W W W Y Y W W W W W Y U W I [ [ # '.6X4X4X}.@XF Z.bX' x c c x a a a s b b M M ",
",.,.,.,.,.,.,.<.2.+ ( T @ @ X X < 6 Y.#.Y ) wXwXtXwX#.wXwX#.iXyXyXyXyXyXyXyX_ [ [ # '.6X4X4X}.@XF P.bX' x c c x a a a a b b M M ",
",.,.,.,.,.,.,.,.&.+ K.z.# O -   3 5 Y.wXY | sXtXyXpXpXyXwX#.tXwXtXpXjXjXjXgX . .Y # '.6X4X4X}.@XF P.bX' x c x a a a a a b b M M ",
",.,.,.,.<.,.-.<.&.+ K.B.5 6 7 6 ^.q T.yX! Y #.wXwXwXwXtXyXyXpXsXgXjXjXjXjXgX . .Y . '.6X4X4X}.@XF E.bX^ p x a a a a a s b b M M ",
",.,.,.,.,.,.,.,.&.+ K.%X|.^.P 7 OXe R.yX~ ) yXgXjXjXjXjXjXjXjXjXjXjXjXjXjXgX . .U ; '.6X4X4X}.@XF E.bX^ p a a a a a s s b b n M ",
",.,.,.,.-.-.-.,.&.o 7X{.2XOXoX1X6Xe R.yX~ _ sXgXjXjXjXjXjXjXjXjXjXjXjXjXgXsX . .U ; '.1X2X4X X$XF E.nX' a a a a s s s s b b n n ",
",.,.,.,.-.-.-.,.&.o 7X%X5XF.c.(.1Xq R.yX~ Y wXwXpXjXjXgXgXsXsXgXjXjXjXgXyX@._  .U ; '.oX[.4X X$Xn.!.nX' a a a a s s s s b b n n ",
",.,.,.,.-.-.-.,.&.+ L.A.{.b.Y k ^.5 R.yX~ Y #.wXwXwXwXwXwXwXk.wXwXwXwXwXwX@.)  .U = ].1XoX6X X@Xn.!.bX^ a a a a s s s s b b n n ",
",.,.,.,.-.-.-.-.&.+ L.v.W k ! Y 1 : R.wX~ ) yXsXsXgXgXjXjXgXgXsXgXgXgXgXgXiX .| I = ].1XOX4X XI.2 E.bX^ a a a a s s s s b b b n ",
"-.-.-.-.=.=.=.,.2.o K.R Y U U ! % - R.@.[ | sXkXjXjXjXjXjXjXjXjXjXjXjXpXwXwX .| I = ].6X5X1X}.I.< E.bX^ a a a a s b b b b b b b ",
"-.-.-.-.=.=.-.7.2.o K.8 & & @ & > - R.@.[ | iXsXsXsXsXsXsXsXsXpXpXpXpXiXiXtX| | I = ].6X5X5X|.S.< E.bXN a s s a s b b b b b b b ",
"=.=.=.=.=.-.8.7.^ o L.n.5 0 0 6 3 : R.@.! Y ) ) ) ) ) _ _ | | | ) ) ) ) ) ) Y { I ; |.<X/.4X|.S.< E.vXN a a s s s b b b b b b b ",
"=.=.=.=.-.,.6.-.N o L.S.r _._.P 7 5 ..+.Y ~ Y [ [ ! [ [ [ [ [ { [ ! { { { o.O.O.Y :  XoXe 3X XC.< E.vXN s s s s s s s s b b b b ",
"=.=.=.,.,.-.=.=.N o L.{.].6 7 7 .X0 W O.o.o.{ { { { { { { { { { [ ~ { { o.O.O.O.) :  X1XoX4X XC.< !.vX^ s s s s s d s s d b b n ",
"=.=.,.6.,.=.=.=.N o L.n.t q q r t : T { } { { { { { } O.O.O.O.O.O.[ o.O.{ [ { o.W . 0 y y y 5 5 - !.vX^ s s s s s b b d d b n n ",
"=.,.6.6.,.=.=.=.N f G.q q 9 4 9 4 r 5 U { ~ { o.} o.O.O.O.O.O.o.{ { O.O.o.{ o.[ T ; 9 9 4 6 4 r ; cXvXN s s s s d d b b d b n n ",
",.,.6.-.=.*.*.*.N o x.u u y r y u 5 < % & & & k k k k k & & k & & k k k & * * * G q u r r y u 9 ; cXvXN d d d d d d d b n d n n ",
"6.-.=.*.*.*.*.*.A f O : 4 4 4 4 4 ; &X*XU.%X%X%X%X$X$X@X$X%X*X*X*X*X*X*X*X*X*XU.N.: 4 4 4 4 : ; E.mXfXm M n d M n n n d n n d d ",
"-.=.*.*.*.*.*.*.*.A ] Q.Q.Q.Q.Q.Q.1 G M.G B.n.n.n.n.n.z.n.B.A.A.A.A.A.A.A.A.B.G O 1 E.!.Q.Q.9XcXvX9X2.M M d n n V V V V n V V V ",
"-.*.*.*.*.*.*.*.A A *.6.9.e.e.e.e.3.H.c.z.z.D D D D D D D D l.z.z.z.z.c.Z.b.b.Z.~.bXmXfX4.2.2.2.%.V d M V M n V V V V V V V V V "
};