/* XPM */
static char *_54d47ab56e64d0c9a212bfbe9d95211[] = {
/* columns rows colors chars-per-pixel */
"64 64 256 2 ",
"   c #030500",
".  c #0C0400",
"X  c #010C00",
"o  c #050B06",
"O  c #140200",
"+  c #1B0200",
"@  c #170901",
"#  c #001300",
"$  c #001B00",
"%  c #071804",
"&  c #161500",
"*  c #010515",
"=  c #180015",
"-  c #001A18",
";  c #230000",
":  c #2C0000",
">  c #260507",
",  c #330000",
"<  c #3A0100",
"1  c #260019",
"2  c #311206",
"3  c #022701",
"4  c #063401",
"5  c #193A00",
"6  c #042912",
"7  c #303101",
"8  c #020427",
"9  c #18002B",
"0  c #050F2F",
"q  c #260028",
"w  c #260136",
"e  c #37002F",
"r  c #002C32",
"t  c #470202",
"y  c #580304",
"u  c #481301",
"i  c #540F09",
"p  c #670305",
"a  c #760507",
"s  c #720E14",
"d  c #4F2F03",
"f  c #6B300A",
"g  c #4B0431",
"h  c #522B27",
"j  c #194B00",
"k  c #104706",
"l  c #2A5305",
"z  c #336F05",
"x  c #204739",
"c  c #464701",
"v  c #555208",
"b  c #6D4D11",
"n  c #4B7009",
"m  c #736E07",
"M  c #7C5825",
"N  c #61702C",
"B  c #0F124E",
"V  c #320349",
"C  c #003647",
"Z  c #013050",
"A  c #312867",
"S  c #500351",
"D  c #511069",
"F  c #6D0E76",
"G  c #532875",
"H  c #6B2B70",
"J  c #5A2555",
"K  c #014952",
"L  c #0E5267",
"P  c #0C6E70",
"I  c #255E6A",
"U  c #715F6B",
"Y  c #931009",
"T  c #A81908",
"R  c #AA1C16",
"E  c #B71719",
"W  c #B80D0C",
"Q  c #B7241A",
"!  c #AD2614",
"~  c #963033",
"^  c #B22E2B",
"/  c #A02910",
"(  c #CA0607",
")  c #D3030C",
"_  c #C81704",
"`  c #CC1214",
"'  c #CD2A17",
"]  c #C91D25",
"[  c #C92727",
"{  c #E31F19",
"}  c #904C14",
"|  c #8C5626",
" . c #A97237",
".. c #A46323",
"X. c #CE4F0E",
"o. c #D9721F",
"O. c #9B2D52",
"+. c #AC7743",
"@. c #995B66",
"#. c #D8794B",
"$. c #C43143",
"%. c #3A850A",
"&. c #508912",
"*. c #6AB211",
"=. c #51912C",
"-. c #72B12F",
";. c #689D24",
":. c #5DC605",
">. c #6AC805",
",. c #74CB06",
"<. c #69D407",
"1. c #76D408",
"2. c #6AC917",
"3. c #76CA18",
"4. c #6BD316",
"5. c #77D517",
"6. c #7ACB28",
"7. c #79D626",
"8. c #74CE2F",
"9. c #72DC2A",
"0. c #389B73",
"q. c #3EA45B",
"w. c #679243",
"e. c #75B549",
"r. c #52B169",
"t. c #52A264",
"y. c #78C94D",
"u. c #6FD16C",
"i. c #8B8915",
"p. c #8AB133",
"a. c #B0AC2B",
"s. c #A29C22",
"d. c #FC8E19",
"f. c #EA9A2B",
"g. c #FA9528",
"h. c #F89837",
"j. c #F2932F",
"k. c #ECA637",
"l. c #CF9B28",
"z. c #85D419",
"x. c #85D628",
"c. c #88D735",
"v. c #8ED034",
"b. c #8CE533",
"n. c #ADCF2B",
"m. c #FBFC09",
"M. c #FDFD1C",
"N. c #FAFA16",
"B. c #EFF110",
"V. c #CBCE36",
"C. c #EBFA27",
"Z. c #FBFA26",
"A. c #FCFB37",
"S. c #F0EF2F",
"D. c #E6D136",
"F. c #BC8E49",
"G. c #A7B259",
"H. c #D49152",
"J. c #F59848",
"K. c #E99A57",
"L. c #F09B4D",
"P. c #D6AB53",
"I. c #F5A44A",
"U. c #F6A456",
"Y. c #E8A54F",
"T. c #D8A569",
"R. c #ECAF6B",
"E. c #D8936B",
"W. c #88C745",
"Q. c #89D747",
"!. c #93CF4F",
"~. c #ABD44F",
"^. c #90E54B",
"/. c #ABE96B",
"(. c #A3DB64",
"). c #D5D754",
"_. c #F0D84F",
"`. c #D3EF55",
"'. c #FDFA48",
"]. c #FEFE5B",
"[. c #FBFB56",
"{. c #EEED50",
"}. c #F4DC6D",
"|. c #D5F573",
" X c #FCF766",
".X c #FCF978",
"XX c #F2EF6E",
"oX c #D2CE67",
"OX c #36369E",
"+X c #711786",
"@X c #4D2F8F",
"#X c #712D8E",
"$X c #672BA8",
"%X c #115884",
"&X c #305697",
"*X c #146F8B",
"=X c #2C7590",
"-X c #344FAD",
";X c #216CAF",
":X c #6056A4",
">X c #346CCE",
",X c #5C6FCC",
"<X c #8E1398",
"1X c #872693",
"2X c #9019B4",
"3X c #A418BC",
"4X c #972FAD",
"5X c #A82ABD",
"6X c #A53691",
"7X c #9349AE",
"8X c #AD49B7",
"9X c #9868A2",
"0X c #A605C9",
"qX c #AB18C5",
"wX c #B107D0",
"eX c #A839C4",
"rX c #B726D4",
"tX c #AF2CC8",
"yX c #9B1CC2",
"uX c #C239D0",
"iX c #B546C8",
"pX c #AC4CCB",
"aX c #A564CF",
"sX c #C65FD8",
"dX c #328A97",
"fX c #1493AE",
"gX c #3091AE",
"hX c #05A7BB",
"jX c #0CA9BC",
"kX c #30AAB8",
"lX c #299A95",
"zX c #46AEB2",
"xX c #549AA0",
"cX c #57CF9B",
"vX c #0B9CC6",
"bX c #3192C9",
"nX c #05AAC9",
"mX c #15AAC8",
"MX c #04B2C8",
"NX c #07A9D6",
"BX c #16AAD6",
"VX c #11B5D3",
"CX c #39B6D7",
"ZX c #2EADCE",
"AX c #0DB2E3",
"SX c #2AB8E6",
"DX c #238DE5",
"FX c #47B1CB",
"GX c #6196D7",
"HX c #39C3D7",
"JX c #52CBDF",
"KX c #9B8E9B",
"LX c #E4A896",
"PX c #F9F386",
"IX c #EAD892",
"UX c #A0B2C3",
/* pixels */
"*.,.<.:.5.%.$ X   2 _.A.N.m.m.m.Z.v . . f R.g.d.d.I.b ; , a W ( ( W s < 1 D yX0XwX0X2XD = o K mXMXMXhXnXfXgX0     # z 7.>.>.>.>.",
",.>.>.<.7.8.k # % . v {.Z.m.B.N.Z.a.  @ 2 H.g.d.g.I.| ; , a W ( ( E s t 1 D 3XwXwX0X$XV = * *XmXnXnXVXhXZXC * # X j 8.2.:.>.1.>.",
">.,.>.x.2.2.Q.k X   . s.S.m.m.N.N.].7 . O +.h.g.g.I. .; : a E ( ) ] s < q F 3XwXwX3X+X9 * r kXBXNXAXNXmXP # X X k y.8.2.5.>.1.:.",
"4.5.5.>.2.>.7.*.3   . & ).C.M.N.N.A.a.. @ f L.h.f.k.F.: : p E ) ` [ y > q 1XqXwXwX3XS * 8 *XZXNXAXNXBXfX- # X 4 -.6.*.7.>.1.>.<.",
"Q.6.2.5.>.5.,.z.;.#   & l {.A.B.N.B.[.7   @ H.J.f.f.Y.u ; y E ` ` ] t > V 4XqXqXqX<Xq * Z kXmXMXAXvXZXC o X $ -.x.3.z.:.7.2.*.b.",
"z y.6.>.5.1.>.,.v.;.X     i.S.M.m.M.A.s.  . ..U.f.f.I.f ; t E ` ( E t 1 D 5XqXqX5XF = o *XZXnXNXNXZXP *   # &.c.>.,.1.,.2.8.8.z ",
"$ j c.*.>.1.1.,.5.x.N X . . n.C.N.M.Z.{.7 . d K.k.f.J.} ; t R _ ( R t 1 F tXqXqX4XV * r kXBXNXVXmXdX8 o $ z ^.2.>.,.1.,.3.8.j $ ",
"  X j -.3.>.5.1.<.3.!.l   & 7 '.Z.N.A.'.;.. + F.I.f.J...; t R _ _ R < q <XrXqX5X1Xw * L CXNXNXBXkXr o   l Q.2.4.1.1.>.x.-.4 #   ",
"  # X 4 *.x.4.<.<.4.6.8.j X . m [.B.Z.A.{.& & M I.h.J.#.: , T _ _ R : q 2XrXqXeXD 8 0 gXZXnXBXCXK - X 5 !.6.>.1.1.,.Q.-.3   X   ",
"0 * # X $ &.^.4.2.7.4.7.-.j . O a.].N.B.[.i.  2 Y.h.U.K.< , T _ _ R ; w 5XrXrX4Xw * %XZXVXVXZX*Xo # 5 -.6.2.5.>.5.6.=.# X     7 ",
"gXK # # X $ n v.6.2.7.2.z.*.% . 7 ).Z.M.Z.).  @ F.J.J.U.u , T _ _ R ; V eXtXrX1X9 8 ZXBXMXmXgXr # # ;.c.3.4.5.7.8.n #   %   v _.",
"mXkXL - -   # l W.8.2.x.,.b.w.X   v [.Z.Z.[.N . b U.J.U.f , T W _ R > D pXtXiXD 8 L ZXSXhXkXK # # ;.v.>.b.,.6.W.l # X   X a.'.Z.",
"hXhXZXfXr o X   j e.c.,.x.6.Q.%.3 X s.[.S.'.oX& 2 K.J.U.| , Y Q _ Y 1 G pXeX4XV 8 gXSXBXCXP # # &.v.6.x.,.b.W.j   . . c V.C.Z.M.",
"MXMXnXZXkXL 8 * X 4 ;.c.6.2.^.y.z # & oX'.S.XXm +  .U.U.+.: Y [ ' Y e #XiXiXH 8 Z FXSXmXgX6 # n c.7.2.8.v.p.5     . i.[.C.m.M.m.",
"MXnXNXNXvXZXdXr - # 3 ;.v.7.5.>.Q.l   v .XS.[.V.& d U.L.F.: a ^ ^ a e 4XuX8XV 8 dXCXmXZXC # j v.3.4.9.(.w.% . O 7 V.S.A.M.m.m.m.",
"hXMXnXNXAXNXjXkXK # $ # &.c.1.z.c.!.l   i. XS.].c + K.L.T.t p ^ ! p S iXeX4X9 C FXmXCXP 6 4 !.v.7.4.^.=.# X @ m [.C.C.N.M.N.N.m.",
"mXmXVXMXnXnXNXBXZX*Xr # $ n v.z.3.c.W.$ O oX].{.~.O ..U.R.i y ^ ^ p S 8XsX#X8 dXZXCXdX$ 4 -.^.6.c.(.z # # 7 s.].A.N.B.N.Z.Z.Z.Z.",
"K *XkXmXmXnXNXAXAXZXgXK # # l !.^.7.^.;.& 7  X[.XXd u K.R.Y p ^ ^ p F iXaXV Z FXbXFX6 3 -.^.3.c.!.z # # n `.].S.M.M.Z.Z.'.'.a.v ",
"o * C =XZXZXBXBXnXVXZXkXP 6 # 4 e.8.8.Q.&.# ;.PX Xa.; H.R.} t ~ ^ y O.sX9X0 *XZXJXL 3 =.y.8.c.-.4   % s.].S.B.Z.N.Z.A.'.a.d . . ",
"= * * 8 Z *XkXZXSXhXVXVXZXgXC - 3 e.Q.c.(.n   G..XPXu b R. .t O.~ t 6XsXD B FXFX=X# z Q.^.c.;.4   v ).{.C.Z.Z.A.[.{.s.d O O O . ",
"D V 9 8 * o r I gXCXBXAXSXmXZXP # $ =.Q.3.~.c 2 LXLX@.u R.H.p ~ ~ t 8XpXD @XGXGX8 x !.v.~.&.# X i. XA.Z.Z.Z.'.{.m 7 . . @ O 2 b ",
"2X$X+XV 9 = * * 0 %XbXCXSXBXmXFXgX6 $ &.!.G.U KXKX9XKX:XKXLXp ~ ~ g 7X:X:X,X-X&X:XU (.~.n # 7 oX XS.A.'.A.V.i.& . @ O + d  .H.Y.",
"0X0XqX5X<XF V w * 8 8 L gXFXCXmXBXCXL X N KXUXGXbXbXbXGX&X9Xg ~ O.H ,X>X>X>X;X>X:X:X9X7   m .X'.S.'.{.oXN & . @ ; u | K.U.J.j.g.",
"wXwXwX0XqXtX4X#XH w 9 8 8 L dXCXSXBXGX:X:XUX,X>XCXZXzXzXGX,XU J @.:XxXFXgXgXbX;X>X:X#Xg T.PX[.'.[.V.m @ . @ 2 M F.Y.U.h.j.h.g.d.",
"wX0X0XwXqXqX3X5XeX4X1XD V 8 8 C =XJXGX,XUXGXbXCXzXcXu.u.y.r.xX:XxXt.r.u.r.r.cXfX;X-X:X9XIXXX.Xa.c & O 2 b F.Y.Y.k.f.f.j.g.g.g.d.",
"2X3XqX3X3XqXrXrXqXtXtXiX7X#XV 8 8 Z @X,XGXbXCXHXcXu./.`.|./.xX0.r./.|././.Q.r.zXbX;X:XH T.P.d @ + d  .P.Y.L.k.h.h.f.f.f.k.I.I.U.",
"D D +X+X4XtXuXuXrXrXtXyXeXiXiX8X#XB D aXGXgXzXcX!.|.PX}.}.}.IXG.oX}.}._..XPXW.r.bX>X-X:Xh : u  .H.U.U.I.I.I.I.J.L.L.L.Y.H. .| b ",
"= = = e S F F +X<X4XeXpXiXiXuXeXpXpX7XaX,XkXcXcX|. X_.U.#.j.Y.}.I.o.o.k._.PX).e.kXDX>X:XU E.LXT.K.U.L.I.U.K.H.#...} f u , ; + O ",
", : : 1 1 1 1 q w w V D G #X4XeXpXpXpXaXGXFXcXu.|.}.k.o.' ' ' #.' T T X.f._. XW.lX;X>X$X@.LXE.R.T.H. .| f u < : ; ; ; ; ; ; ; ; ",
"p s s s y t t < : : ; > 1 q e S S F 1X7X,XbXcXu.|.}.J.' ' { ' _ ( ` ] T d.D.].W.xXgX-X$X@...| i u < , , < , , , t t t y y p s s ",
"E ] [ E E E R R T R R R Y Y a s s y y @.GXbXzXcX|.}.J.' [ ] ] { { { ] Y j.D.`.8.lX;X:X#Xt t p p p a Y Y Y Y T ! T E E E E W ` ` ",
"{ ` ( ) ) ( ( _ _ _ _ _ ` [ Q ! ^ $.^ O.aX,XzXcX(.XXU.X.' { ` { { _ W T l.{.b.q.dX-X$X1XO.$.^ $.^ ^ Q Q W _ _ W _ ` ) ) ( ) ) { ",
"( ( ) ) ) ( ( _ _ _ _ _ ] [ [ ^ ^ ^ O.O.1X,XgXzXu.`._.o._ ( W ( ( W W X.D.`.-.0.&XOXH O.O.$.$.^ ^ Q Q ' _ _ _ _ _ _ ( ( ( ( ) ) ",
"` ` E E E E E R Q T Y Y Y Y a p p y y t g H &XdX0.y.{.k.X._ W W _ W X.k.{.v.t.dX&X@XS g y y p s s a Y Y R R R R R R E Q ] E W W ",
"a a p p y t t < , , , < , : : t i } } +.E.@.@X-XgX0.W.{.D.X.T T T X.f.S.!.q.xX%X@X7XaX8X6XO.S g g e q 1 > ; ; : t t t t y p a a ",
", , : ; ; + + ; : < u f |  .F.P.Y.Y.R.R.R.+.g @X;XgXt.v.)._.l.X.o.k.[.n.t.xX&X-XA A :XaXaXsXaX8X8X4X#XG D V w q 1 1 1 1 : : : : ",
"+ + ; : u f } ..#.H.K.K.L.I.U.U.Y.R.F.b : d +.@.A &XdX0.e.~.'.D.S.`.-.q.dX;XOX-XGX%XZ B G 1X8XiXeXtXiXpXpXeX4X<X<XF S e q 1 1 = ",
"b M  .H.Y.Y.I.U.L.U.J.J.I.U.U.K...u @ 7 s.PXPXIXx A &X=X0.e.~.`.b.-.t.dX&X&X@XB gXJXFX%XB 8 V #X8X8XiXeXtXtXrXrXrXqX5X4X1X+XD S ",
"L.I.I.k.f.f.f.f.j.h.J.U.K. .d + . c a..X.X}.G.& N U G OX;XdX0.r.0.0.I &XA J KXw.3 I FXJXFX=XZ 8 8 V #X7XiXrXrXqXrXqX3X3X3X3X3X2X",
"d.d.g.f.f.k.k.k.I.Y.F.} 2 + & c G.PXXX.XXXv 4 e./.w.A OX-X-XdXlXdX=X&XA 9Xh &./.w.3 K ZXCXZXFXdXC 0 8 w D 4X8XeX5XqXqXqXwXwX0X0X",
"d.g.g.j.J.U.K.H.M 2 @ . . m V.]. X X.XG.4 j W.(.w.3 gX>X@X@X-X-XOX@XJ h IXIX3 ;.~.v.4 - dXFXCXZXFXgXL 8 8 w w D #X4XtXqXwXwXwXwX",
"g.g.h.U.K.| u ; @ .   N oX X'.S.[..Xm X z !./.e.4 P JX%XD 4X$X$X#XH LXf | PXp.3 v.v.(.k 6 L kXCXmXCXFXzXI * * 8 w V F <X5XqX0X0X",
"K.K. .d + O @ . & i.{.[.].A.S.].~.5 X ;.v.v.(.6 C zXxXr #X8XS H J t LX+.2 PXPXn 3 (.W.(.l $ r dXHXmXSXHXZXbX*X8 * * = 9 V F $X2X",
"b 2 O & @   7 m {.[.Z.Z.S.'.[.i.$ 3 ;.~.v.!.l * kXJXI 0 sX8Xg O.~ t H.R.2 s..X`.4 j (.v.(.=.# - P HXZXBXAXBXCXkXI r o * 8 9 V D ",
". . . . 7 s.{.].Z.M.Z.B.[.}.v   5 -.c.x.!.n # dXFXzXr G sX<Xy ~ ~ t #.R.M 7  X[.p.3 %.Q.6.^.=.4 r C gXZXmXVXhXSXZXgX*XZ 8 * * = ",
".   7 a.[.'.Z.M.Z.N.A.[.s.&   7 !.^.3.b.=.$ P FXFX*X8 7XsX<Xp ~ ~ y ..T.E.; a.]. X&.$ =.c.x.^.y.4 # 6 P kXZXVXNXBXBXZXZX=XC * o ",
"v a.'.'.Z.Z.M.N.S.].).v # $ l W.v.x.^.=.3 r kXZXFXZ B aXpXF p ^ ^ p } R.R.d d  X{..X7 % p.x.5.x.!.l # # K gXCXNXNXNXMXmXmXkX*XL ",
"Z.Z.Z.N.N.m.M.Z.[.s.7 X $ z Q.8.x.v.e.4 $ lXmXCX=X8 #XpXpXS y [ ^ y f T.R...@ P.]. XP.@ $ p.b.3.z.v.z $ # r *XCXmXMXMXnXnXVXmXmX",
"m.m.N.N.m.N.C.[.m O   3 %.9.9.7.v.!.4 - P CXmXFXC 9 8XiXpXg a ! Q a t T.U.Y.O c ].S. Xi.  5 W.6.5.5.c.&.# # * K kXjXNXAXNXnXMXhX",
"m.m.N.M.C.'.V.7 O . % ;.8.9.7.2.!.j # C ZXmXHXgX0 S iXuX4Xe a ^ [ Y < H.U.U.d & V.'.S. Xv   l !.4.4.7.v.;.$ # % r dXZXvXNXNXnXhX",
"m.m.m.C.[.i.. &   5 *.x.3.2.c.!.n # 6 gXmXSXFXK 8 #XiXeX#X1 Y [ [ Y ,  .U.U. .O m {.S.'.).% # z 9.b.2.3.v.*.4 X * 0 L ZXSXNXnXMX",
"N.N.C.V.c   .   l e.x.,.z.3.W.&.# # P HXVXSXgX0 V 7XeXeX+X1 Y _ _ Y < | U.I.P.2 . oX'.Z.].s.# $ %.Q.6.z.1.b.-.j   * * C fXZXvXnX",
"A.'.i.&   X   n e.6.2.z.>.v.w.# # K kXhXSXZXL 8 F eXtXpXD > R _ _ Y , f U.L.U.b . N [.M.C.[.n X $ =.v.,.z.2.c.-.l #   - - L ZXZX",
").v       3 w.W.8.7.5.>.x.;.# % C gXmXMXBXZX8 9 1XtXtXeXV ; Q _ _ Y , u U.I.I.F.@ . _.Z.M.A.).7   # -.x.2.4.3.6.W.z $ X # # K gX",
"7   X % 4 =.c.2.2.5.,.6.W.4 X - *XZXVXnXZX%X8 V 4XrXrX5Xw ; R _ _ T < u K.U.h.Y.2 . i.[.N.N.].a.O . 5 -.c.5.1.4.7.^.&.$ # # X - ",
"  % X 5 -.v.2.5.5.>.x.v.j # # K CXBXnXZXgX0 8 D eXrXrX<Xq , T _ _ T t u H.L.h.I.M > & ).A.Z.C.].m O   l -.3.5.<.4.4.x.*.4 X #   ",
"o X l 6.z.z.,.4.4.2.Q.l X X r kXVXAXNXCXL * w 1XtXqXrX<X1 < R _ _ Q i ; ..J.h.k.F.; . i.'.Z.B.A.'.7 &   l Q.3.<.5.4.3.6.-.j X   ",
"3 l Q.,.>.,.,.5.2.^.z $   * dXmXMXNXBXgXr * V 4XqXqXtX+X1 t E _ { Q u + } I.f.f.K.d O 7 {.Z.M.B.C.n.@ & X n c.,.5.>.,.3.-.e.j 3 ",
"&.W.6.,.1.1.z.*.c.&.#   * L ZXMXMXnXCX%X* = F 5XqXqX5XD 1 t Q ` { Q t + f I.f.f.U...O . s.A.M.N.M.A.i.  # # &.v.,.1.>.5.8.8.y.z ",
"6.7.*.,.>.1.>.x.-.$ X X C ZXvXNXMXjXZXZ * q 2XqXqXqX4XS > t Q ( ) E t ; u Y.f.h.J.H.> @ d [.B.M.N.A.{.c     $ ;.z.>.z.>.2.2.7.7.",
"2.:.,.,.1.*.8.-.4 X # - fXBXNXAXMXmX=X8 8 S 3XwXwXqX1Xq > y ] ( ) E y : , F.k.j.h.K.d @ + a.'.N.Z.A.C.V.& X   4 -.3.2.3.>.5.>.<.",
":.5.>.>.5.8.-.j X X # P mXNXNXNXmXkXr * 9 +XqXwXwXqX+X1 : p E ) ) E p ; ;  .I.g.g.J.+.+ O d ].Z.Z.B.M.A.s.. # X j -.6.7.5.>.<.:.",
"2.1.1.<.:.8.j X % * Z ZXvXVXnXhXmX*X* * V $X0XwXwXyXD = : a E ) ) ` p ; + M I.g.d.j.T.2 O . a.Z.m.B.N.M.'.v . % X l Q.2.<.>.>.,.",
"3.>.:.<.5.z $   * 0 gXbXNXnXMXhXmXK o = D $X0XwX0X2XD = , a W ( ( ` s ; O b L.d.d.g.T.f O @ v Z.m.m.m.N.Z._.7     4 z 3.<.>.,.>."
};