/* XPM */
static char *_b2cc339b9694f85dd9b3781152ff67eEgS9DnHSESsQoN85[] = {
/* columns rows colors chars-per-pixel */
"64 64 222 2 ",
"   c #375B9B",
".  c #385998",
"X  c #325794",
"o  c #3C6297",
"O  c #3A619D",
"+  c #39679D",
"@  c #3B5FA2",
"#  c #365EA7",
"$  c #3E66A4",
"%  c #3D6BA3",
"&  c #3F66AB",
"*  c #3E69AD",
"=  c #3764A2",
"-  c #3E6AB3",
";  c #3E6BBB",
":  c #3966B1",
">  c #5D718A",
",  c #40699E",
"<  c #4B6D9C",
"1  c #476597",
"2  c #56749D",
"3  c #5C719C",
"4  c #4B678C",
"5  c #687F9F",
"6  c #415EA0",
"7  c #436BA4",
"8  c #4066AB",
"9  c #426AAC",
"0  c #4668A6",
"q  c #4F72A1",
"w  c #4672AC",
"e  c #4A73AC",
"r  c #4779A8",
"t  c #5F74A2",
"y  c #5478A8",
"u  c #426DB3",
"i  c #416DBB",
"p  c #476AB1",
"a  c #4572B4",
"s  c #4975B4",
"d  c #4779B5",
"f  c #4B7AB4",
"g  c #4472BD",
"h  c #4976BA",
"j  c #4A7ABC",
"k  c #477ABC",
"l  c #537BB3",
"z  c #517FBA",
"x  c #6B7EA9",
"c  c #3F6EC0",
"v  c #416FC1",
"b  c #4474C1",
"n  c #4877C5",
"m  c #4B7AC5",
"M  c #4D7DCA",
"N  c #467BC5",
"B  c #537BC7",
"V  c #547ED4",
"C  c #5385BE",
"Z  c #6E8AA2",
"A  c #7D93AE",
"S  c #7E95A5",
"D  c #7B97B3",
"F  c #4D83C5",
"G  c #4D83CC",
"H  c #4F88CB",
"J  c #5585C3",
"K  c #528BC5",
"L  c #5C8BC7",
"P  c #5383CB",
"I  c #5B85CB",
"U  c #5689CE",
"Y  c #598CCE",
"T  c #5C92CD",
"R  c #5891C8",
"E  c #4889D9",
"W  c #568BD2",
"Q  c #5B8DD1",
"!  c #5887D5",
"~  c #5792D6",
"^  c #5E93D4",
"/  c #5B98D3",
"(  c #5A95DB",
")  c #5E9CDB",
"_  c #5191D9",
"`  c #648CCC",
"'  c #678DCA",
"]  c #6494CF",
"[  c #699CCE",
"{  c #669DCD",
"}  c #7697CA",
"|  c #618DD3",
" . c #6196D5",
".. c #6E94D7",
"X. c #649AD6",
"o. c #6B9DD4",
"O. c #659CD9",
"+. c #6A9DDA",
"@. c #69A2CF",
"#. c #64A3D7",
"$. c #6BA2D5",
"%. c #66A3DB",
"&. c #6BA3DC",
"*. c #6FA8DF",
"=. c #73A4DA",
"-. c #71AADE",
";. c #77A5D7",
":. c #7FA7CA",
">. c #628FE0",
",. c #649CE5",
"<. c #55A3E3",
"1. c #6DA6E1",
"2. c #66A5E4",
"3. c #72ACE1",
"4. c #76ACE5",
"5. c #75B2E4",
"6. c #79B6E5",
"7. c #7CB9E6",
"8. c #7EBBE8",
"9. c #899BB5",
"0. c #8494AD",
"q. c #93A4B7",
"w. c #9AA1A9",
"e. c #CDBEB7",
"r. c #CDC2BF",
"t. c #CDCEBC",
"y. c #D5C6B7",
"u. c #8FABC9",
"i. c #91ADDC",
"p. c #8FB0D3",
"a. c #A6B8C7",
"s. c #A9B6D6",
"d. c #B5BCDB",
"f. c #80BCE9",
"g. c #85B5E6",
"h. c #96B7E1",
"j. c #ACC0C9",
"k. c #AAC1D1",
"l. c #BACBDF",
"z. c #B9D1DD",
"x. c #9EC3E6",
"c. c #AAC9E9",
"v. c #B4CDE3",
"b. c #B7C7E8",
"n. c #BBD5EB",
"m. c #C5C7C3",
"M. c #CDCBC6",
"N. c #C5C9CA",
"B. c #CDCDCD",
"V. c #C7C8C8",
"C. c #D2CCC4",
"Z. c #D3CCCB",
"A. c #D5C6C6",
"S. c #CDD0CE",
"D. c #D4D2CD",
"F. c #DBD3C0",
"G. c #CBCED3",
"H. c #C4CDDC",
"J. c #C5CAD5",
"K. c #D3CDD3",
"L. c #D2C6D2",
"P. c #C3D2D3",
"I. c #CED3D5",
"U. c #CAD5DC",
"Y. c #C8D6DC",
"T. c #D4D4D4",
"R. c #D9D5D3",
"E. c #D4D9D5",
"W. c #DCDBD5",
"Q. c #D2D5DA",
"!. c #DBD4DC",
"~. c #D5DADD",
"^. c #DBDBDB",
"/. c #E2DAD7",
"(. c #DCE2DA",
"). c #D6E3D2",
"_. c #E1E4CF",
"`. c #E4E3DD",
"'. c #EAE7DC",
"]. c #C3D2E3",
"[. c #C3D7EC",
"{. c #CAD7E7",
"}. c #DBDDE3",
"|. c #DCDBEE",
" X c #D4DCE5",
".X c #C5D2EB",
"XX c #E3DEE4",
"oX c #E8DFEA",
"OX c #DDE4E5",
"+X c #DEEAEB",
"@X c #D7E6E6",
"#X c #DEE8F1",
"$X c #E3E3E3",
"%X c #EAE5E4",
"&X c #E6EAE5",
"*X c #EBEBE5",
"=X c #E5E3E9",
"-X c #E6EBEB",
";X c #ECECEC",
":X c #EAE4EC",
">X c #F3ECEC",
",X c #F2ECE2",
"<X c #EAF2EB",
"1X c #F3F4EC",
"2X c #FDF6EC",
"3X c #F3F9ED",
"4X c #FBFAEE",
"5X c #F1F1E7",
"6X c #ECECF2",
"7X c #E5ECFC",
"8X c #F2ECF3",
"9X c #F4EAF7",
"0X c #ECF4F3",
"qX c #EAF3F7",
"wX c #F3F3F3",
"eX c #FAF5F5",
"rX c #F5FAF4",
"tX c #FCFBF4",
"yX c #F5F5F9",
"uX c #FCF6FE",
"iX c #F6FBFB",
"pX c #FCFCFC",
/* pixels */
"f.f.8.8.7.8.7.6.7.6.6.6.5.5.5.5.5.5.5.5.3.4.4.4.3.3.-.3.3.3.1.*.*.*.*.&.&.#.#.#.&.&.+.O.O.O.O.O.X.O.O.O.O.X.X.X. . . . .^ ^ ^ ^ ",
"8.8.8.7.7.7.6.6.6.6.6.5.5.5.5.5.5.5.5.3.3.4.3.3.3.-.-.3.3.1.*.*.*.&.&.&.&.#.#.#.&.+.O.O.O.O.O.O.O.O.O.O.X.X.X.X. . . .^ ^ ^ ^ ^ ",
"8.7.7.7.7.6.6.6.6.6.5.5.5.5.5.5.5.3.3.3.3.3.3.3.-.-.*.*.*.*.*.&.&.&.&.&.&.#.#.#.&.&.O.O.O.X.O.O.O.O.O.X.X.X. . . .^ ^ ^ ^ ^ ^ ^ ",
"7.7.7.7.6.6.6.6.5.5.5.5.5.5.3.4.3.3.3.3.3.3.3.3.3.*.*.*.*.*.&.&.&.&.&.&.&.&.+.&.+.O.+.O.O.O.O.O.O.O.X.X. . . . .^ ^ ^ ^ ^ ^ ^ ^ ",
"7.7.6.6.6.6.6.6.5.5.5.5.5.3.4.4.3.3.3.3.3.3.3.3.1.*.*.*.&.&.&.&.&.&.&.&.&.O.O.O.O.O.O.O.O.O.O.O.X.X.X. . .^ ^ ^ ^ ^ ^ ^ ^ ^ ^ ^ ",
"6.6.6.6.6.6.5.5.5.5.5.5.3.3.3.3.3.3.3.3.3.3.3.1.1.*.&.&.&.&.&.&.&.&.&.&.O.O.O.O.X.O.X.O.O.O.O.O.X. . . .^ ^ ^ ^ ^ ^ ^ ^ ^ ^ ^ ^ ",
"6.6.6.6.5.5.5.5.5.5.5.3.3.3.3.3.3.-.3.3.3.1.*.*.*.*.&.&.&.&.&.&.&.&.&.O.O.O.O.X.X.X.O.O.O.X.X.X. . . .^ ^ ^ ^ ^ ^ ^ ^ ^ ^ Q Q Q ",
"6.6.6.5.5.5.5.5.5.5.5.4.3.3.-.-.-.-.3.3.1.*.*.1.*.&.&.&.&.&.+.+.#.O.O.O.O.O.X.X.O.O.O.O.X.X. . . . .^ ^ ^ ^ ^ ^ ^ ^ ^ ^ Q Q Y Y ",
"5.5.5.5.5.5.4.4.4.4.4.3.3.3.3.-.3.3.*.*.*.*.*.&.$.&.&.&.#.%.2.O.%.X.+.O.O.O.O.X.O.O.X.X. . . . .^ ^ ^ ^ ^ ^ ^ ^ ^ ^ ^ Q Q Q Q Q ",
"5.5.5.5.5.3.4.4.4.4.3.3.3.-.-.-.*.*.*.*.&.*.&.&.+.1.2.%.&.o.[ $.o.+.o.X.O.) X.&.O.X.X. . . .^ ^ ^ ^ ^ ^ ^ ^ ^ ^ ^ ^ Q Y Q Q Q Q ",
"5.5.5.5.3.3.3.3.3.3.3.3.3.3.1.3.*.*.*.*.&.&.&.&.#.#.&.&.$.&.1.,.,.O.o.o.X.O.O.^ X.X. . .^ ^ ^ ^ ^ ^ ^ ^ ^ ^ ^ ^ Q Q Y Q Y Y Y Y ",
"5.5.5.3.3.3.3.3.-.3.3.3.3.1.1.1.*.*.&.&.&.&.&.&.2.#.@.$.) ( O.o.{ O.W ^ &.#.^ ,. . . .^ ^ ^ ^ ^ ^ ^ ^ ^ ^ ^ ^ ^ Q Q Q Y Y Y Q Q ",
"5.5.3.3.3.3.3.3.-.-.3.3.1.1.1.1.*.&.&.&.&.&.&.&.+.1.) #.g.c.v.].].v.x.g.^ Y  .X. . . .^ ^ ^ ^ ^ ^ ^ ^ ^ ^ Q Q Q Y Y Y Y Q Q Y Y ",
"4.4.3.3.3.3.3.3.3.3.3.1.*.*.*.*.*.&.O.&.&.&.&.&.+.[ h.[.Q.B.D.C.R.D.E.OX[.i.] ^ ^ ^ ^ ^ ^ ^ ^ ^ ^ ^ ^ ^ Q Q Y Y Y Q Q Q Q Y Y U ",
"3.3.3.3.3.3.3.3.3.1.1.*.*.*.&.&.&.&.&.&.&.O.+.&.;.n.).y.A.L.V.C.t.M.K.A.F.(.c. .^ ^ ^ ^ ^ ^ ^ ^ ^ ^ ^ Q Q Q Y Y Q Q Q Q Y Q W U ",
"3.3.3.3.3.3.3.3.1.*.*.*.*.&.&.&.&.&.&.&.O.X.O.&.}.G.N.N.V.B.I.P.Q.I.I.Q.T.~.}.Y.^ ^ ^ ^ ^ ^ ^ ^ ^ Q Q Q Q Y Y Q Y Y Y Y Q W U U ",
"3.3.3.3.3.1.1.*.$.-.2.%.$.&.[ 1.+.o.o.*.4.&.p.n.V.V.B.B.B.B.T.T.T.E.E.E.E.E.^.^.H.W E T  .^ R ( | | Q | | Y U Q Y Q Y Y U U U U ",
"3.3.-.3.3.1.*.*.-.%.&.1.&.O.4./ <.f.v.U.~.~.E.D.V.B.B.B.B.T.T.T.T.E.E.E.E.E.^.^.$Xl.x.} Q _ / L K R R K K Y ! ! Y Y U U U U U U ",
"3.-.3.3.*.*.*.&.&.,.$.=.+.%.) ;.v.{.Z.e.r.M.V.B.B.B.B.B.T.T.E.E.E.E.^.^.^.^.^.^.W./.8X#Xb...G ] ^ ^ ~ ~ ~ W U Q U U U U U U U U ",
"3.1.*.*.*.*.&.&.&.2.&.&.+.%.=.n.A.r.M.K.J.J.I.Z.B.T.T.T.T.E.E.E.E.^.^.^.^.^.^.^.OXoXW._.1X{.} W ` I P ! ! W U Y U U U U U P P P ",
"3.*.*.*.*.&.&.&.&.&.1.&.#.o.v.R.m.V.V.N.S.B.M.D.T.T.T.T.E.E.E.E.^.^.^.^.^.^.XX$XXX~.`.OX}.,XU.I L T ` I Y Q U H U U U U P P P P ",
"*.*.*.&.&.&.&.&.&.{ ,.%.X.h.E.y.B.m.B.D.B.B.Q.I.T.T.T.E.E.E.^.^.^.^.^.^.^.$X$X$X$X-X'.XX7X'.<Xp.E E W Y L U U W U U U P U P P P ",
"*.&.&.&.&.&.&.&.2.$.&.) o.[.M.M.B.G.G.G.T.K.Z.R.E.E.E.E.E.^.^.^.^.^.^.$X$X$X$X$X^.=X%X'.>X=XqXz...| U P U P U Q P U P P P P P P ",
"*.&.&.&.&.&.&.&.%.+.$.O.;.U.B.P.M.B.D.Z.D.T.E.U.E.E.E.E.^.^.^.^.^.^.$X$X$X$X$X$X;X:X+X+X$X>X&X>X*XY.p.L P W U J P P P P P P P P ",
"&.*.O.&.&.O.&.O.o.2.) :.H.I.B.Z.B.K.T.T.T.E.E.E.E.^.^.^.^.^.^.^.$X$X$X$X$X$X$X=X&X=X&X&X&X;X;X;X9X3XrX].` G J ! P P P P P P P P ",
"&.&.+.&.&.O.&.O.2.X.c. XT.B.I.T.T.T.T.T.E.E.E.^.^.^.^.^.^.^.^.$X$X$X$X$X$X$X$X=X&X&X&X;X;X;X;X;X6X1X;XqX[.' P U P P P P P P P M ",
"+.&.&.&.O.O.&.X.) c.!.C.M.T.G.Q.T.T.E.E.E.^.^.^.^.^.^.^.^.^.$X$X$X$X$X$X$X$X&X&X;X;X;X;X;X;X;XwXqX>X>XtXtXs.V F P P P P P P P M ",
"&.&.&.&.O.O.O. .p. XC.C.I.Q.D.D.E.E.E.E.^.^.^.^.^.^.^.XX$X$X$X$X$X$X&X&X&X&X&X&X;X;X;X;X;XwXwXwXqX1X4X8X2X6X' F P P P P P M M M ",
"&.O.&.+.O.O.o.X.H.R.C.~.U.S.R.E.E.E.^.^.^.^.^.^.^.XX$X$X$X$X$X$X$X&X&X&X&X&X&X;X;X;X;X8XwXwXwXwXyXwX1XuXwXtXs.N P P P P P P M M ",
"O.o.+.O.+.+.o.=.Q.E.T.G.S.R.T.~.E.^.^.^.^.^.^.^.$X$X$X$X$X$X$X$X&X&X&X&X&X&X;X;X;X8X8XwXwXwXyXwX2XyXwXiXqXpXH.k P P P P P M M M ",
"X.O.O.O.+.+.X.4.^.N.Q.W.R.^.~.Q.^.^.^.^.^.^.$X$X$X$X$X$X$X$X&X&X&X&X;X;X;X;X;XwXwXwXwXwXwXwXwXwXrX9XpX0X0XpXU.a P P M M M M M M ",
"X.+.O.X.+.X.] 4.W.Q.Q.D.W.Q.}./.^.^.^.^.^.$X$X$X$X$X$X$X$X$X&X&X&X;X;X;X;X;X;XwXwXwXwXwXwXwXrXwXiXeXuXrXpXpXP.8 M M M M M M M M ",
"O.O.O.O.O.O.O.O.T.T.R.T.(.W.~.|.^.}.$XW.`.oX=X`.$X&X&X&X&X&X&X&X;X;X8XwXwXwXwXwX1XwXeXwXyXyXyXyX2XuXiX3XtXpXs.= h B P M m M M m ",
"O.O.O.O.O.O. . .k.+XT.XX!.E.'.R.$X~.$X`./.=X=X&X$X$X&X&X&X&X;X;X;X;X8X8XwXwXwXwXeXwXwXyXyXyXyXwXuXpXiXiXpXpXA . u j M M m m m m ",
"O.O.O.O.O.X. .^ } {.`.!.|. X(./.^.$X=X$X$X$X-X&X&X&X&X&X&X;X;X;X0X;X8XwXwXrXwXwXwXyXwXyXwXwXpXtXpX0XpXuX4X@X1 9 7 a m G M m M m ",
"O.O.X.X.X.X. . .' u.~.`.^.}.OX$X`.$X=X=X&X$X&X=X&X&X&X;X;X;X;XwXwXwXwXwXrXwXwXiXwXyXyXwXwXtXpXpXiXpXpXtXtXZ # * $ 9 h m M M m M ",
"O.X.X. . .X. . .( C D Y.'.%X$X*X&X`.%X*X`.*X&X:X;X;X;X;X;X;XwXwXwXwXwXwXwXwXwXwXiXyXyXwXpXpXwXpXtXpX4X4X9.X * 7 7 7 a n M M m m ",
" . .X.X.X. .^ ^ T ,.j 2 9.d.d.a.a.6X%X*X$X*X&X6X;X;X8X8X;XwXwXwXwXwXwXwXtXtXwXtXyXwXpXyXpXpXpXpXpXpX@XZ   - 7 1 9 7 u h m m m m ",
" . . . . .^ ^ ^ ] Q  .f 7 0 e 7 2 ].&X%X;X&X;X;X;X8XwXwXwXwXwXwXwXwXwXwXyXyXyXyXyXeXpXpXpXpXpXOXs.A 4 = - % o 9 0 9 9 i n m m m ",
"X. .^ ^ ^ ^ ^ ^ / ^ ] R r r e y 9 A 0X;X6X6X;X;X8XwXwXwXwXwXwXwXwXwXwXwXyXyXyXpXpXpXpXpXpXpXpXw.X   $ & O 0 9 % 7 7 u i g n m m ",
"^  .^ ^ ^ ^ ^ ^  .^ ^ Q J s e y d < a.6X6X-XwX8XwXwXwXwXwXwXrXtXyXyXtXyXpXpXrXpXtXiXiXpXtXpX7X> $ $ $ $ $ $ $ $ & * 9 u u g n m ",
" .^ ^ ^ ^ ^ ^ ^ ^ ^ ^ ^ L z e e l 9 q a.1X,XwXwXyXwXwXyXyXyXwXyXiXpXyXyXpXtXuXuXpXpXuXpX4XpX9.@ $ $ $ $ $ $ $ $ * 9 9 u u g n n ",
"^ ^ ^ ^ ^ ^ ^ ^ ^ Y Q ^ T J f e e d d q a.rX5X0X1X1XrXrXrXrXrXpX3XyXpXpX<X&XpXpXpXpXpXtXyXq.. : $ $ $ $ $ $ $ $ * * * u u g n n ",
"^ ^ ^ ^ ^ ^ ^ ^ Y Y Y Q Q Y C s f e w u < A @XiXpXiXwXwXwXyXwXwXpXtXtXY.x t a.).9XrX+Xj.Z . 8 + $ $ $ $ $ 8 8 8 * * * u i h b n ",
"^ ^ ^ ^ ^ ^ Q Q Y Q Y Y Q Y U m f s l l a $ 2 q.Q.6XpXpXpXpXpXpX7XH.0.1 8 # . < 3 t 1 O @ 8   7 $ $ $ $ & 8 8 8 * * * u i h g b ",
"^ ^ ^ ^ ^ Q Q Y Q Q Q Y Y Q Y U h a e r w s p 6 4 5 9.u.a.a.q.S t 1 6 @ & w & & + O 9 $ $ O 7 $ $ $ $ & 8 8 8 8 * * * u i i g b ",
"^ ^ ^ Q Q Y Y Y Q Q Q Y Y Q W U B z w s s 7 e i * & =   O $ $ O : $ , + = = , 1 % % o , 7 $ 8 $ $ $ & & 8 8 8 8 & - - u i i g b ",
"Q Q Q Q Y Y Y Y Q Q Q Y U U U U J j s w s h e 7 w 9 7 0 0 0 0 7 + 9 8 p 7 $ 7 & 8 8 9 = = %   0 & & 8 8 8 8 8 8 & - - u i i g b ",
"Q Q Q Q Q Q Q Q Y Y Y Y U U U U U F h h f s a a e 9 9 9 7 7 7 7 7 7 7 7 7 7 7 7 7 7 7 & & & & & & & & & & & 8 & 9 9 u - ; g g b ",
"Q Y Y Q Y Q Q Q Y Y Y U U U U U U P m h s s s d e w 9 9 9 9 9 9 7 7 7 7 7 7 9 7 7 7 9 8 & & & & & & & & & 8 & & & 9 - - ; i g b ",
"Y Y Y Y Y Q Q Q Y U U U U U U U P U J j s s h s a a 9 9 9 9 9 9 9 9 7 7 9 9 9 9 9 9 7 7 * & & & & & 8 8 8 8 & 9 & * - i i i g g ",
"Y Y Y Y Y Q Y Y U U U U U U U U P U U m h h h s a a a a 9 9 9 9 9 9 9 9 9 9 9 9 9 9 9 9 9 & 8 & * & & 8 8 & 9 * & - - i i i g g ",
"Y Y Y Y Y Y Y U U U U U U P P P U P P P m j h h s s a a a a u u 9 9 9 9 9 9 9 9 9 9 9 9 9 9 9 9 * * & & & & - - - - - i i i i i ",
"Q Q Q Y Y U U U U U U U P P P P U P P P P m h h h h h a a u u u u u u u - - 9 u u u 9 * * * * * * * & & u - - - - - - u i i i i ",
"Q Q Y U U U U U U U U U P P P P P P P P P m m h h h h h a a u u u u u u u u u u u u u u u - - - - - - u u - - - - - - i i i i i ",
"Q Y Y U U U U U U U U U P P P P P P P G M P m j h h h h g a a a a a a u u u u u u u u u u u u u - - - - - u - - - - - i i i i g ",
"Y U U U U U U P U P P P P P P P P P M M M M M M n k k k h h a a a a a a u u u u i i i i i i u i - - i i i i ; - - - - i ; ; ; b ",
"U U U U U U P P U P P P P P P P G P M M M M M M n n k k k h h a h a a a a i i i i i i i i i i i i i i i i i i u u - - u i ; ; b ",
"U U P U U U P P P P P P P P P P M M M M M M M M n n n k k k k g k h a a a a i i i i i i i i i i i i i i i i i i i i i i i i ; v ",
"U U P P P P P P P P P P P P P P M M M M M M M M m m N n n n k k g g g g g a a i i i i i i i i i i i i i i i i i i i i i i i i v ",
"U U P P P P P P P P P P P P M M M M M M M M M M m m m n n n n n b b g g g g g g a a g g i i i i i i i i i i i i i i i i i ; ; v ",
"U U P P P P P P P P P P P M M M M M M M M M M M M m m n n n n n n n n n n n b g g g g g g g v i g g i i ; ; i i c ; i i i ; ; ; ",
"P P P P P P P P P M M P M M M M M M M M M M m m m m m m n n n n n n n n n n b b g g b g g b v b b g g i ; i i i c ; ; i ; ; ; c ",
"P P P P P P P P M M M M M M M M M M M M M m m m m n m m n m n n n n n n n b b g n n n b g g v b b b b g b b b g v c v v v ; c c "
};