/* XPM */
static char *_83f96a413f6421c89a64e6d62ad6a88JHG07JNfW428Rlg6[] = {
/* columns rows colors chars-per-pixel */
"64 64 255 2 ",
"   c #030203",
".  c #08080A",
"X  c #13110D",
"o  c #060C14",
"O  c #161618",
"+  c #372B18",
"@  c #081926",
"#  c #151A24",
"$  c #241B20",
"%  c #12252E",
"&  c #162635",
"*  c #262728",
"=  c #2F2E2E",
"-  c #363738",
";  c #453818",
":  c #473A35",
">  c #3E441B",
",  c #3C442D",
"<  c #756A1A",
"1  c #78691A",
"2  c #484A36",
"3  c #514F31",
"4  c #615221",
"5  c #5A6232",
"6  c #726D32",
"7  c #183846",
"8  c #2A3949",
"9  c #303D52",
"0  c #1D4654",
"q  c #394449",
"w  c #2C4955",
"e  c #384655",
"r  c #344968",
"t  c #30526A",
"y  c #385378",
"u  c #3E6E76",
"i  c #386778",
"p  c #464748",
"a  c #534C4F",
"s  c #46534A",
"d  c #58564B",
"f  c #454955",
"g  c #4A5558",
"h  c #585858",
"j  c #6A574E",
"k  c #685A56",
"l  c #586751",
"z  c #6F6F48",
"x  c #746659",
"c  c #48596B",
"v  c #595C64",
"b  c #645C63",
"n  c #4A656B",
"m  c #566568",
"M  c #4C6676",
"N  c #577078",
"B  c #676767",
"V  c #6E6F70",
"C  c #787777",
"Z  c #867419",
"A  c #84792C",
"S  c #817E44",
"D  c #87746B",
"F  c #8B7874",
"G  c #6C886B",
"H  c #918C37",
"J  c #A7952E",
"K  c #A4982A",
"L  c #A6973A",
"P  c #E0CF3E",
"I  c #F6ED3F",
"U  c #FEF13D",
"Y  c #938D4B",
"T  c #A7934F",
"R  c #A8A548",
"E  c #B9B052",
"W  c #948A74",
"Q  c #B3986D",
"!  c #ABAD63",
"~  c #CDB647",
"^  c #C5B74A",
"/  c #C6B956",
"(  c #C6B465",
")  c #CDC851",
"_  c #D6CA57",
"`  c #D8D459",
"'  c #E7D54E",
"]  c #E9DA57",
"[  c #E3E04A",
"{  c #FEEE45",
"}  c #F5ED4A",
"|  c #FDEE4C",
" . c #FDF144",
".. c #F4F249",
"X. c #FCF24B",
"o. c #EAE85A",
"O. c #FDED54",
"+. c #F6EB59",
"@. c #F9F255",
"#. c #D6CE6A",
"$. c #E5D966",
"%. c #F1D96B",
"&. c #E9E565",
"*. c #F5E964",
"=. c #F3EA6D",
"-. c #3A5B8A",
";. c #3C5E92",
":. c #396D86",
">. c #3E6198",
",. c #3E66A5",
"<. c #3F67AC",
"1. c #3F69AC",
"2. c #3F69B2",
"3. c #3F6BBC",
"4. c #4B6889",
"5. c #4F7187",
"6. c #547889",
"7. c #456599",
"8. c #557697",
"9. c #6F7A83",
"0. c #4267A4",
"q. c #4066AC",
"w. c #416AAC",
"e. c #4872AC",
"r. c #547AA7",
"t. c #416CB4",
"y. c #416DBB",
"u. c #4572B3",
"i. c #4975B5",
"p. c #4371BC",
"a. c #4876BB",
"s. c #4B7BBC",
"d. c #547BB5",
"f. c #4574C1",
"g. c #4A76C4",
"h. c #4C7BC5",
"j. c #4D7DC9",
"k. c #4D79CE",
"l. c #507FC9",
"z. c #847F81",
"x. c #4F8995",
"c. c #6F8C8C",
"v. c #5092AC",
"b. c #5B85BA",
"n. c #6589A9",
"m. c #6F8FB7",
"M. c #6794B9",
"N. c #54A1BB",
"B. c #6DA8AF",
"V. c #4E81C8",
"C. c #5484C4",
"Z. c #5B88C4",
"A. c #5383CB",
"S. c #5D85CA",
"D. c #5689CD",
"F. c #5A8CCE",
"G. c #5791CE",
"H. c #5B92CD",
"J. c #5587D1",
"K. c #5A8DD1",
"L. c #5D92D3",
"P. c #5D93D9",
"I. c #6389CA",
"U. c #6796CA",
"Y. c #769AC8",
"T. c #688DD5",
"R. c #6196D4",
"E. c #6A94D3",
"W. c #649BD6",
"Q. c #6C9CD5",
"!. c #6496DB",
"~. c #659BDB",
"^. c #699EDA",
"/. c #719DD5",
"(. c #7F9CD4",
"). c #52A6C5",
"_. c #72ACCF",
"`. c #66A1D7",
"'. c #6CA2D6",
"]. c #66A2DB",
"[. c #6BA3DC",
"{. c #6DA9DD",
"}. c #74A3DA",
"|. c #78A6D8",
" X c #73ABDE",
".X c #649DE0",
"XX c #6BA7E3",
"oX c #6CA4E2",
"OX c #76A8E1",
"+X c #73ACE2",
"@X c #76B2E3",
"#X c #7AB5E5",
"$X c #7DBAE7",
"%X c #888887",
"&X c #988986",
"*X c #8E928D",
"=X c #969998",
"-X c #AB8D87",
";X c #A79389",
":X c #A69997",
">X c #B79C91",
",X c #95A495",
"<X c #AEA897",
"1X c #8B98A9",
"2X c #B09FA5",
"3X c #95A3AA",
"4X c #A7A8A6",
"5X c #B4AFAA",
"6X c #A9B4BA",
"7X c #B7B9B9",
"8X c #C3A79A",
"9X c #D2B391",
"0X c #C7B3AC",
"qX c #D6B8A9",
"wX c #D5B9B2",
"eX c #EABCB6",
"rX c #DDC399",
"tX c #CDC5B4",
"yX c #D8C7B8",
"uX c #E8C9B9",
"iX c #EBCEB9",
"pX c #F6D3BC",
"aX c #859FC6",
"sX c #819ED4",
"dX c #94AFCD",
"fX c #82A2D5",
"gX c #87A6D9",
"hX c #89AADC",
"jX c #ABBCD0",
"kX c #86BAE6",
"lX c #9AB7E2",
"zX c #A4BCE1",
"xX c #89C5D5",
"cX c #B2C5D2",
"vX c #91C6EB",
"bX c #B5D0E3",
"nX c #B6E2E9",
"mX c #C8C9C9",
"MX c #D3D3D0",
"NX c #D9D9D7",
"BX c #E7CBC3",
"VX c #F9CEC6",
"CX c #EBD5C6",
"ZX c #FAD5C3",
"AX c #F6D6C9",
"SX c #DFE0DF",
"DX c #E4E3DD",
"FX c #C8DAE9",
"GX c #D6DCE4",
"HX c #D7E8EF",
"JX c #E8E7E8",
"KX c #F3F2EE",
"LX c #EAF3F9",
"PX c #F7F8F7",
"IX c #FBFCFC",
/* pixels */
"vX$X$X$X$X$X$X$X$X$X$X$X#X#X@X@X@X X X+X+X+X+X+X+X X X X X X X{.{.oX[.[.].].`.`.`.`.`.`.`.`.`.W.W.^.~.~.W.W.W.W.R.R.R.R.P.P.L.|.",
"vX$X$X$X$X$X$X$X$X$X$X@X@X@X X@X@X X X+X+X+X+X+X+X X X X X{.{.{.[.{.[.[.[.].`.].`.`.`.^.W.W.W.W.^.^.~.~.W.W.R.R.R.R.R.P.P.L.L.}.",
"vX$X$X$X$X$X$X$X X_.M.n.n.n.n.M.U. X+X+X+X+X+X+X+X{.{.{.oXoXoXoX[.[.[.[.[.[.[.[.].].~.~.^.~.~.~.^.~.~.W.W.W.R.R.R.P.P.L.L.L.L.}.",
"vX$X$X$X$X$X$X Xn.n s s 2 2 2 s m n.U. X+X+X+X+X{.{.{.{.oXoXoXoX[.[.[.[.^.^.^.^.~.~.~.~.!.!.!.!.~.~.W.W.R.R.R.R.L.L.L.L.L.L.L.}.",
"vX$X$X$X$X$X#X_.5., 5 Y R R T Y 6 3 m M.oX+X+X{.{.{.{.[.[.oXoXoX[.[.[.[.^.^.^.^.^.~.!.!.!.!..X!.W.W.W.R.P.L.P.P.L.L.L.L.L.L.L.}.",
"kX$X$X$X$X@X@X@XU.n 6 ( =.*.=.%.#.T 6 v M.{.+X{.{.{.'.[.[.[.^.^.W.W.`.[.^.^.W.W.E.R.R.W.~.!.!.!.W.R.R.R.L.L.L.P.L.L.L.L.L.L.L.}.",
"kX$X$X#X@X@X@X@X+XM.l R &.@.O.*.*.%.( z m M.{.oX{.`.U.b.n.8.8.6.6.8.r.b.U.W.W.U.8.6.8.r.b.H.R.R.R.R.R.L.P.L.L.L.L.L.L.L.L.L.K.}.",
"kX#X#X@X@X@X@X@X+X'.N H ` O.| { | O.=.( z 6.U.Q.M.8.c p , , , , 2 , , q M r.U.M.M - , 2 s M r.H.R.R.P.R.P.L.L.L.L.L.L.L.K.K.K.}.",
"kX@X@X@X@X@X+X+X+X Xn.z ) +.| { { | O.%.R l 8.8.g 2 5 6 H H L R R R H 6 3 2 M n.8.s z Y A 3 s 5.Z.L.P.L.L.L.L.L.L.K.L.K.K.K.K./.",
"kX@X@X@X+X+X+X+X+X XM.z ^ +.X.{ { { { O.` A 2 2 6 T ( #.$.&.&.o.o.o.&.#.! 6 3 s 5.m Y #.$.E 6 2 M Z.L.L.L.L.L.L.K.K.K.K.K.K.K./.",
"kX@X@X+X+X+X+X+X+X+XM.l E +.X. . . .{ X.+.R 4 A ) o.o.+.+.@.@.......+.*.=.#.R < 2 g z #.=.o.) H 3 5.H.L.L.L.L.L.K.K.K.K.F.F.F./.",
"kX+X+X+X+X+X+X+X+X+XM.l E +.X. .{ { { X.} ) 1 R *.@...} ..X.X.X. ...} @.+.*.*./ A ; 4 / *.@.+.` H d 8.F.L.L.L.K.K.K.K.K.F.F.D./.",
"kX+X+X+X+X+X+X+X+X XM.z / +.X.X.{ { {  .X.[ H L +.X. . . .X.X.X. . ...X.| | O.+._ A ; T &.+.+.*._ 6 m b.K.K.K.K.K.K.K.K.K.F.D./.",
"kX+X+X+X+X+X+X+X X{.n.z / +.X.X.{ { | X...[ K K o.X. . . . . . . . . . .{ { { | +.~ 1 < ^ *.+.O.*.E z 8.F.K.K.K.F.F.K.K.K.F.D./.",
"kX+X+X+X+X+X+X+X{.'.n.z / +.X.X. .{ | | } [ K L ] | {  . . . . .U U  . .{ { { { | +.E < H $.*.O.O.$.Y n C.K.K.F.F.F.K.K.F.D.D.Q.",
"kX+X X+X+X+X+X+X{.'.n.z / +.X.X. . .| | | ] H L ] X. .X. . . .U U U  .| { { {  .X.O.$.L < E *.O.O.*.E d r.F.K.K.F.F.K.K.D.D.D.Q.",
"kX X X X+XXXXX[.{.'.M.l E +.O.X. . .{ | X.' H R o. .X.X.X... . .U I O.] P } {  .| O.+.) 1 A ] O.O.*._ 6 8.D.F.K.K.K.K.K.D.D.A./.",
"kX{. XOXOXXXXX[.{.'.U.m T &.+.X... .{ | O.~ Z ^ +.X.X. . . . . .{ } ] ~ J ' | X.| } } ] L < ^ *.O.O.' A M C.K.K.F.K.K.J.D.D.A./.",
"kX{. XOXOXoXoX[.[.[.W.6.z ) *.} } ..| O.] K H _ +.X.X. .X. . . .| ] / T T / o.@.......+./ < J *.O.X.] H n C.F.S.F.F.J.J.D.A.A./.",
"#X{.{. XOXoX[.[.[.[.].b.l Y $.+.} @.+.*.^ Z K o.X.X.X.X.X.X.X.+.' ^ Q 9X9XQ #.*.} ....@.$.H A $.O.X.] H v b.D.D.D.J.J.D.D.A.C./.",
"#X{.{.{.[.[.[.[.[.[.].W.6.5 R ` o.o.$.E 6 A ` @.X.X.@.+.*.] ` ^ L T 9XpXuXQ Q $.*.} ..} &.L 1 _ +.O.] H g b.D.D.D.D.D.D.A.A.A.E.",
"#X[.[.[.[.[.[.[.[.`.].W.M.C 6 H R R Y 5 5 ! #.&.&.$.` ) E T 1 4 T rXpXpXpX9XQ ( &.+.....+.E 1 / +.@.] H n C.J.D.D.A.A.A.A.A.A.E.",
"#X].[.[.[.[.[.[.[.[.[.Q._.jX*X5 > 5 l q l G G Y Y z 6 4 + + + 3 Q iXZXZXZXpX9XQ / ] } ..@.) 1 L +.*.] A M C.J.K.D.A.C.C.C.A.V.!.",
"@X[.[.[.[.[.oXoX[.'.Y.Y.1XjX7X*Xs %XcXB.x.G l + X X X . . $ V 5X:XwXAXZXZXpXpX9XT E ` +.@._ 1 L &.=./ 6 5.C.D.D.A.A.C.C.C.A.V.!.",
"@X[.'.'.[.~.oXoXQ.Y.m.c.9.9.*X*Xh 6XHXdXN.v.x.*         . p mXJX7X5XBXAXZXpXZXiX9XY Y ) &.#.6 Y =.=.T B n.b.C.D.A.A.C.C.C.A.V.!.",
"@X[.'.'.[.~.oX.XQ.Y.1XB x x x d p 6XHXxX).N.x.& .       X B DXIXNX2XwXuXpXpXZXAX0Xx + 6 E ( 6 Y #.E z ,XcXY.b.A.A.A.A.A.A.A.V.E.",
"@X`.`.'.^..XoX~.(.aXC W qXqX>Xx : 3XHXxX).).x.7 o       X V JXIXKX5X-X9XiXuXuX0XF * X 2 W Y 3 5 S 6 W NXHXzXm.C.A.k.A.A.A.V.j.E.",
"@X^.Q.Q.^.~.~.Q.hX1XD 0XZXZXZX8Xd %XFXxX).).v.7 o       X h MXIXKX5XD >XuXqX>X&Xa O X B yX<X2 2 x ;XMXKXLXFXY.b.A.A.A.l.A.A.j.E.",
"@X^.[.`.~.~.W.}.zX*X&XuXZXZXZXyXD C bXvX).).v.0 o         * %XmXtX;XW 8XuX>XV B g O O B NX7Xd *XMXJXKXKXPXLXdXd.A.A.A.l.l.l.j.E.",
"OX^.^.W.~.^.Q.fXjX*X&XBXAXVXiXuX:XB cXnX_.).N.:.%         . * a d D tXiXiX<XB V v # o q 3X=Xb mXKXKXKXPXPXLXzXd.l.A.V.V.l.l.j.E.",
"OX~.^.W.^.W.U.gXbX=XD :X8X>X-X;X&Xa ,XnXxX).).x.8 o       .   . = ;XiXCXCXtX=X9.c #   O p g C SXPXPXPXPXPXLXzXd.h.V.V.j.j.l.j.T.",
"|.^.^.W.~.W.U.aXbX7XC k k k j k d = m bXvX).).N.i & o         X x wXZXAXCXMX4Xc.n @     . * =XKXPXPXPXPXIXLXlXr.s.h.j.j.j.j.j.T.",
"|.W.W.~.~.W.U.Y.cXFX7X:X:X4X5X4X%Xa - 3XnXxX).).v.y & o .   . : >XVXZXZXCXCX4XG M & .   . p mXPXIXIXIXPXIXHXaX7.i.j.k.j.j.h.s.U.",
"|.W.~.~.~.W.U.Y.dXFXGXNXMXNXNXNXMX5XB N cXbX_.).N.v.i 7 & # = F uXAXVXVXCXCX5XG N 7 o   $ %XJXPXIXIXIXIXIXFXm.7.t.g.k.k.j.h.s.U.",
"|.~.~.~.~.W.R.U.Y.cXFXGXSXNXSXSXDXNX4Xv c.FXbX_.N.v.v.x.M m F wXAXAXAXVXVXCXtXc.c.n % o a 0XPXIXIXPXPXIXLXdX8.7.w.p.j.k.j.j.h.U.",
"|.~.!.~.P.!.!.E.U.aXcXFXHXGXGXJXJXDXNX*Xv 3XFXbXxXB.B.c.c.=XwXBXBXVXVXVXVXCXtX*Xc.x.q - =XJXIXIXPXIXIXLXbXn.7.7.w.t.g.j.j.j.j.E.",
"|.W.!.!.!.!.!.R.U.I.m.dXbXFXFXFXcX7X7X7XC b %X6X6X,X*X*X<XyXZXiXeXVXuXeXVXAXBX4XN t q C NXPXIXIXIXIXLXbXm.7.7.0.w.w.u.g.h.j.k.T.",
"|.R.R.!.!.!.P.P.T.U.b.r.m.aXdX1XV V C &X&Xk : k W ,X<XtXiXpXZXiXqXwXqXeXAXAXCX5Xg & V mXPXPXPXLXHXFXdXr.7.7.0.0.w.w.w.a.g.h.k.T.",
"|.R.R.R.R.P.P.P.P.R.I.d.r.8.8.M B &X&XD x x 2 = x >XyXiXZXCXCXiX8X8X8XeXAXBX8XF p B mXPXPXPXKXcX1Xn.7.7.7.0.0.w.w.w.w.u.i.g.g.T.",
"|.R.R.R.R.L.P.P.P.P.L.F.d.r.r.M C wXBXwX-XD j + + 3 F >XwXyXBXBX0X>X8XqX8X&Xk d z.mXPXIXIXIXHX1X4.7.7.7.,.,.w.1.w.w.w.e.u.a.g.I.",
"}.R.R.R.H.H.L.P.L.L.L.L.C.s.e.4.b 0XBXAXAXyX>XD 3 + + : x F &X&XF D x x j d B 4XNXDXNXMXmXcX1XM y -.7.0.0.<.<.1.1.1.1.t.u.a.g.I.",
"}.P.R.H.H.H.H.L.L.L.G.L.F.C.i.7.v ;XyXCXAXCXCXuX8XF j : : - = = - : : a V *X7X7X4X=X%XC C B g - 8 e y ;.0.<.<.<.1.1.2.t.y.a.f.I.",
"}.P.P.L.L.H.H.H.H.H.G.H.H.D.s.e.4.B <XBXAXAXAXAXZXiXqX>XD p O * C :X4X4X=Xc.C V V C *X=X4X4X*XB C V q r >.,.,.<.1.2.t.y.y.f.f.I.",
"}.P.P.P.L.L.H.H.H.H.F.F.F.F.C.s.e.c V :XtXBXCXBXiXuX8X&Xb f 8 e 6XFX6X9.q = h 3XmXSXKXKXKXDX=XB 4X=Xp & -.,.w.1.1.2.t.y.y.f.f.I.",
"}.P.P.P.P.L.K.F.F.F.F.F.F.F.D.C.s.0.c B F &X&X;X;XD k f r 5.4.t N 6.g q - g 6XLXKXPXIXIXPXmXa * p p O # -.0.0.q.w.2.t.t.y.y.f.I.",
"/.L.L.L.L.K.K.K.F.F.F.F.F.F.F.A.s.i.0.c e p p f f - p B 6.M r & % 7 e c V 6XLXIXPXPXIXIXKX5X* . .   . & ;.0.q.q.q.w.2.t.y.y.p.I.",
"/.H.H.L.L.K.K.K.K.I.F.F.F.K.K.D.C.s.u.e.7.4.7.7.-.9 f g 8 & @ % 8 t M N 6XHXLXKXJXJXJXSXMX%XO .   . & y 0.q.q.q.q.w.1.t.t.p.p.I.",
"/.F.H.H.K.K.K.K.K.F.F.F.F.F.K.D.C.s.i.u.u.i.u.u.0.r * O o @ 7 t 6.6.t n *X=X=X*X%X%XC C V p * # & 8 y 0.q.q.q.q.q.1.1.t.t.p.p.I.",
"/.F.F.F.F.K.K.F.F.F.F.F.D.D.D.D.A.C.s.s.i.i.i.i.w.y # o % 0 :.x.x.u 0 w w e e 9 8 8 8 8 9 r r y -.;.0.<.q.q.<.<.<.2.2.t.y.y.p.I.",
"Q.F.F.F.F.F.F.F.F.D.D.D.D.D.D.D.A.A.l.s.i.i.i.i.e.;.7 7 i x.v.v.u t -.>.;.;.-.-.-.-.;.;.7.0.0.<.<.<.<.<.<.<.1.1.1.2.2.t.y.y.y.I.",
"Q.F.F.F.F.F.F.F.D.D.D.D.A.D.D.A.A.A.A.h.i.a.i.i.u.>.w :.v.N.v.5.t -.0.w.w.w.w.w.w.w.w.w.w.w.q.q.<.<.<.<.<.1.1.1.1.2.t.t.y.y.y.I.",
"Q.F.F.F.F.F.F.D.D.D.D.A.A.A.A.A.A.A.A.C.s.i.i.i.u.-.t v.N.v.5.w w >.w.w.w.1.w.w.w.w.w.w.w.w.w.q.<.<.<.<.<.<.1.1.1.2.t.t.y.y.y.I.",
"Q.F.F.F.F.D.D.D.D.D.D.A.A.A.A.A.A.A.A.A.l.s.i.i.u.-.i v.N.x.t % % 9 >.w.w.w.w.w.w.w.w.w.w.w.w.1.<.<.<.<.<.1.1.1.2.2.2.3.3.y.y.S.",
"Q.F.F.F.F.D.D.D.D.D.A.A.A.A.A.A.A.A.A.A.A.h.s.a.u.y i v.x.:.n * . # y w.1.w.t.t.t.t.t.t.w.w.1.2.2.<.<.<.1.1.2.2.2.2.2.2.3.y.y.S.",
"Q.F.F.F.F.D.D.D.D.A.A.A.A.A.A.A.A.A.A.A.A.h.h.g.u.t u x.:.c.6XB X X 9 0.t.t.t.t.t.t.t.t.t.t.t.2.2.2.2.2.2.2.t.t.t.t.2.3.3.y.f.S.",
"Q.F.F.F.D.D.D.A.A.A.A.A.A.A.A.A.A.A.A.A.j.j.h.h.u.t n M N cXJX=X- * e 0.t.t.t.t.t.t.t.t.t.t.t.t.2.2.2.2.2.t.t.t.t.2.2.3.3.3.y.I.",
"E.D.D.D.D.D.D.A.A.A.A.A.A.A.A.A.V.V.A.j.j.h.h.h.u.y e h 3XJXKX0XC p y w.u.t.t.t.t.t.t.t.y.y.y.t.t.t.t.t.t.t.t.t.t.2.3.3.3.3.3.S.",
"E.D.D.D.D.D.A.A.A.A.A.A.A.A.A.A.j.j.j.j.j.j.j.h.a.-.8 B MXPXJX4Xv f 7.t.p.p.y.y.y.y.y.y.y.y.y.y.t.t.y.y.y.t.t.t.t.3.3.3.3.3.3.S.",
"E.D.D.D.D.D.D.A.A.A.A.A.A.A.A.A.j.j.j.j.j.j.j.j.h.w.r h =X4X%Xv 9 -.t.p.p.p.p.y.y.y.y.y.y.y.y.y.y.y.y.y.y.y.y.y.y.3.3.y.y.3.3.S.",
"E.A.A.A.D.D.D.A.A.A.A.A.A.A.A.j.j.j.j.j.j.j.j.j.j.g.7.r e e e r -.t.p.p.p.p.p.p.p.p.p.y.y.y.y.y.y.y.y.y.y.y.y.y.y.y.y.y.y.3.3.S.",
"E.A.D.D.D.A.A.A.A.A.A.l.l.A.j.j.h.h.j.j.j.j.j.j.j.j.g.w.;.;.0.u.p.p.p.p.p.p.p.p.p.p.p.p.y.y.y.y.p.y.y.y.3.3.y.y.y.y.y.y.y.3.3.S.",
"E.A.A.A.A.A.A.A.A.A.A.A.l.j.j.j.h.h.j.j.j.j.j.j.j.j.h.g.f.f.f.f.f.f.f.p.f.f.f.f.p.p.p.p.p.y.y.y.p.p.y.y.y.y.y.y.y.y.y.y.y.3.3.S.",
"E.A.A.A.l.l.l.j.j.j.j.j.j.j.j.j.h.h.h.j.j.j.j.j.h.h.g.g.g.f.f.f.f.f.p.p.f.f.f.f.f.f.f.p.y.y.y.y.p.p.3.3.3.y.y.y.y.y.y.y.3.3.3.S.",
"lXhXhXhXhXhXhXhXhXhXhXhXhXhXhXhXhXgXgXgXgXgXgXgXgXgXgXgXgXgXfXfXfXfXfXfXfXfXfXfXfXfXfXfXsXsXsXsXfXfXfXsX(.sXsXsXsXsXsXsXsX(.(.hX"
};