/* XPM */
static char *_59cb12d95ac47849df546dccf6d39f5rukz1fpUSvDPMV1x[] = {
/* columns rows colors chars-per-pixel */
"64 64 151 2 ",
"   c #141416",
".  c #151419",
"X  c #17181C",
"o  c #1B1B1D",
"O  c #1E1E21",
"+  c #201F24",
"@  c #232325",
"#  c #26262A",
"$  c #28272C",
"%  c #2A2A2D",
"&  c #2F2E31",
"*  c #302F34",
"=  c #2F3032",
"-  c #323235",
";  c #363639",
":  c #38373C",
">  c #37383C",
",  c #3A3A3D",
"<  c #3E3E41",
"1  c #403F44",
"2  c #3F4044",
"3  c #424245",
"4  c #464649",
"5  c #48474C",
"6  c #47484B",
"7  c #4A4A4D",
"8  c #4E4E51",
"9  c #504F54",
"0  c #4F5054",
"q  c #525255",
"w  c #565559",
"e  c #58575C",
"r  c #57585C",
"t  c #5A5A5D",
"y  c #5E5E61",
"u  c #605F64",
"i  c #5F6063",
"p  c #626265",
"a  c #656669",
"s  c #68676C",
"d  c #67686C",
"f  c #6B6B6D",
"g  c #6E6E71",
"h  c #706F74",
"j  c #6F7074",
"k  c #727275",
"l  c #767679",
"z  c #78777C",
"x  c #77787C",
"c  c #7B7B7D",
"v  c #7E7E81",
"b  c #807F84",
"n  c #7F8084",
"m  c #838285",
"M  c #868589",
"N  c #87888B",
"B  c #8B8B8D",
"V  c #8E8E91",
"C  c #908F94",
"Z  c #8F9093",
"A  c #929295",
"S  c #969699",
"D  c #98979C",
"F  c #97989B",
"G  c #9A9A9D",
"H  c #9E9DA1",
"J  c #A09FA4",
"K  c #9FA0A4",
"L  c #A2A2A5",
"P  c #A6A6A9",
"I  c #A8A7AC",
"U  c #A7A8AB",
"Y  c #AAAAAC",
"T  c #AEAEB1",
"R  c #B0AFB4",
"E  c #AFB0B3",
"W  c #B3B3B5",
"Q  c #B6B6B9",
"!  c #B8B7BC",
"~  c #B7B8BB",
"^  c #BABBBD",
"/  c #BEBEC1",
"(  c #C0BFC4",
")  c #BFC0C3",
"_  c #C2C2C5",
"`  c #C6C6C9",
"'  c #C8C7CC",
"]  c #C7C8CA",
"[  c #CACACC",
"{  c #CECED1",
"}  c #D0CFD4",
"|  c #CFD0D3",
" . c #D5D5D7",
".. c #D2D3D5",
"X. c #D4D3D8",
"o. c #D5D4D9",
"O. c #D6D6D9",
"+. c #D6D6D9",
"@. c #D8D7DC",
"#. c #D8D7DC",
"$. c #D7D8DB",
"%. c #D8D8DA",
"&. c #D9D8DD",
"*. c #DADADC",
"=. c #DBDBDD",
"-. c #DAD9DE",
";. c #DCDCDE",
":. c #DDDDDF",
">. c #DADADC",
",. c #DCDBE0",
"<. c #DFDFE1",
"1. c #DEDEE0",
"2. c #DEDDE2",
"3. c #DEDEE1",
"4. c #E0DFE4",
"5. c #DFE0E2",
"6. c #E0E0E2",
"7. c #E1E1E3",
"8. c #E2E2E4",
"9. c #E3E3E5",
"0. c #E2E1E6",
"q. c #E4E4E6",
"w. c #E5E5E7",
"e. c #E2E2E5",
"r. c #E4E3E8",
"t. c #E7E7E9",
"y. c #E6E5EA",
"u. c #E7E6EB",
"i. c #E6E6E9",
"p. c #E8E7EC",
"a. c #E7E8EC",
"s. c #E8E8EA",
"d. c #EBEBED",
"f. c #EAE9EE",
"g. c #EDEDEF",
"h. c #EAEAED",
"j. c #EDECF1",
"k. c #EFEFF1",
"l. c #EEEEF1",
"z. c #EFF0F4",
"x. c #F1F1F3",
"c. c #F2F1F6",
"v. c #F5F5F7",
"b. c #F2F2F4",
"n. c #F5F4F9",
"m. c #F5F5F9",
"M. c #F8F7FC",
"N. c #F7F8FC",
"B. c #F9F9FB",
"V. c #FAFAFC",
"C. c #FBFBFD",
/* pixels */
"c @ > f x v l x c m , 7 c A m c l 3 < p f p h M m c g 3 O 7 r k s y ; : @ 1 w 8 8 r y a k k 9 # t G m N T L P L p @ > k A ^ _ ^ ",
"q.l 4 G H H S H L S 7 W [ ^ ^ +.,.f a G G S G A S P H q t ' 4.t.f.,.B ; p A J L H S H S S H M < Q k. .q.:.7.f.g.W % B ,.V.7. .7.",
"v.W y Y N F A B N S 3 ^ / ` ^ W ` r z P M C P A B S H t B k.r.,.+.M.T & M S V A V B P A V G A 1 ^ f.:.B...*.*.*./ % ^ +.,.%.7.f.",
"t.T g Y B L G H W m - W ` [ _ [ +.8 a H A H H A D A H t L c.#.X.} n.H < P S S D D C J V H G b & _ 7.[ 7...7.q.k.G r v.h.*.,.:.{ ",
"%.k q N B v a m A t - f S U Y Q T < 3 M A m b H D S V < M t.t.t.0.+.y 8 P C L J H V m c H G h * ..x.0.0.x.t...[ q 3 W ..*.*.+.0.",
"t @ , q t 4 % , - - < @ , - & - # # ; 9 w 4 < ; u y q @ ; e 8 q , 7 + y H c k e 7 7 < ; - < < & 8 a p 7 q 7 , % - % % > > > % < ",
"3 a A A S F F B V m A F A - 4 A ! *.{ { X.*._ s . - e c v l k v A C q @ - < 8 t l v b g @ 9 v b x k f 7 o q N A V A N m v B k k ",
"c G F S A V L A S H V A S 7 A V.,.p.+.f.,.+.n./ - z D T C D L D S H m + 7 S D L J A H H 1 G ,._ { `  .W < m [ [ ` ^ ....` [ _ ..",
"G A S A S m A A A S B F A 3 +.:.+.*.} #.f.+.,.H < H S V G V S S V B M : M D G V G V S M 1 P { ^ ^ W ` L @ T ^ _ Q _ W ^ _ W ^ ^ ",
"F G G S U L U A H L G L m - ^ k.k.n.c.0.#.,.k.B w L H S L G P L H W m - C I C L V L P a % P #.Q `  .[ g % Y _ ` ..{ ^ _ ..[ [ _ ",
"r q q 8 t 3 8 3 < q t q 4 @ t g k k V T / ,.+.8 ; g l m M h g r f V p & g c u b B v g , @ f J H S k k % - T [ F c k t p p s l g ",
"c f f k f # r c k f y 4 3 - @ ; q < , 3 * : q # 4 q 7 8 5 3 8 < 7 9 r : , # ; q 8 & < 4 q 4 < & @ ; t - @ & , 7 ; > - , @ < k v ",
"P F L U J q G %.*._ _ / T k < S D H G I S g 8 ; Q T P Y L I ! T Q L Q H G 8 l J J A S B L H D g q ,.t.` _ t @ G L L G S q a A H ",
"N B A A A 8 L ` W Y ` [ [ c & A V S v B P Y g 5 L L Y R T Y I H I I T H _ 8 t D M S J S J G D p q k.*.+.B.G , H B B B F q k G S ",
"F G H F G 7 L _ [ [ [ W [ B > B A P G A B G g 5 T T T L L Y T R P T T Y / w y H G S A V V V H l 7 +.*.7.q.M 7 V G S F P q l H A ",
"S B A A B @ M ^ P L W W :.c @ v H S G P S I k * D I Q T W ! W Q W P J G f % y C A G G L H P J r q f.f.t.V.k ; A S A A H < p F A ",
"q , t t 3 7 3 7 < # , q f 7 - & y r a f i q ; # - q y 7 e t 4 8 r , - ; - % & , , 3 8 t a f q % - f Z B f , @ - - - 4 < - @ , , ",
"q A W W W / _ ^ [ m O - G W F q @ r g a y y i y 7 @ > k n v m ^ _ / V & 3 m V l a a a p 3 @ < M V V c x A G L W F p @ % l B L G ",
"k _ _ _ [ ^ _ ` _ [ i k [ ^ [ c < G L S H G P U G , y t.n.k.+.,.,.x.*.y p L L G H L G G m 3 k C.g.g.0.0.c.c.f.f.v. .p r _ [ { [ ",
"m ^ ^ Q / W W _ ^ | 7 k %.W [ f 3 H V M H A A V G 8 m n.{ ,.0.,.+.7.k.A p A m A A F N G L p g c. .,.7.:.+.....*.[ g.l t ` ^ ^ Q ",
"v W :._ ^  .[ / ` [ 3 a [ _ ..t 7 P H S L S H S K t Z C.| t.j.t.0.t.g.A 4 L H S A G B F L t y *.+.%.7.f.g.f.q.:.h.m.c s %.[ [ { ",
"3 r N M B U L W L v % 7 G Y L % 3 V G M x l Z V Z 3 d o.[ / Z n H U Q c ; B A B A G A A m 3 a t.g.[ W P L ^ ..%.[ Q q q P B V G ",
"7 - o % 7 3 % 7 7   % - & > t 8 4 - > 4 ; - 4 5 8 - ; 4 , ; % , - , 3 @ O , 7 t 3 3 3 3 - o % y ; % & - & ; < - - ; % - 7 > 4 7 ",
"B m , p { ,.[ ..q.q B [ .. ...,.*.r 4 M Z m m B V K v ; q S H H G A f & c A L Y P L G G U W m < P A F U Y W Y V , a F A B V L M ",
"A G k L t.,.,.,.*.p ..0.,.t.,. .f.g i B H K V G D G H 4 y H A S V P k x [ ^ _ ` [ ` [ { ^ 0.A l [ ` .._ _ [ W { q B G A G G A G ",
"A G k L 7.*.*.*._ y  .,.*.[  .7.c.p f T Z A S S S m A - l H H A A P k M ` [ [ _ W ^ W T ^ ` p A ..W W W W ` ^ ^ r B G A F S A G ",
"J z q Y C.t.,.c.^ g #.l.V.0.0.t.z.a r P V G L H H H U 3 l D H G G N t L [ [ ^ ` ..[  ... .^ 7 M ..^ [ .._ ` ` T p V G A G G G L ",
"h < . q m w < 8 4 @ a N C V C S f < # y t y q r a g y ; g K g y 7 %   r c k f g m p g f t 7 @ , 7 3 7 3 7 7 7 - @ 3 7 3 4 7 4 7 ",
"< e r w y u p a a u a p # % < 8 0 a q 8 # - p c p r ; @ ; 2 & g m N x t p t 8 o % , y a p p k s k a 7 # f B M x p f s a a a t t ",
"m L P S A F G G S L A H y f D L K U K B 7 y { { { / Q V l % y V.0.x.B.%.t.h.f.[ % p L L W G H G G L B 7 H  .[ [ ..[ [ [ [ [ [ _ ",
"H C C D H D C D S S V J l y H A V V S L n a ` Q _ / _ ` { v m n.....+.:.q.%.+.f.v p L B A V B F N A L 3 m ` ^ ^ ^ W ^ ^ ^ ^ / ^ ",
"D S H G H L H H H A J P l ; G D S H V A S 5 P { E { ~ _ _ Y V ,.t.k.q.f.7.0...g.[ < H A A L F A L B Y > g ..[ ^ [ ` [ { _ _ ` [ ",
"r t k f t t p s c k f a - # h V H A H V a , G / Q ` / ^ ! g a f._ m f G [ ..:.c.W , p F A F N m B V f - < L L L F S A A H H G L ",
"t % % y a t 4 - @ & r p 8 3 3 3 3 , < ; * O 1 < 8 5 7 8 8 % . 4 & > 3 7 q q q q 7 O - 3 % % > - 3 , @ % 3 < % -   ; 4 < 3 7 3 , ",
"V t t _ [ ` ` W % m t.0.7.c..._ H M m M v 1 9 l V v B V M v e - k A L A v v m x x > & x G G U G ^ W q q W ^ V @ f A L G G L G A ",
"G c g ..^ ^ [ Q 7 W c.+...t.:.0.n.k.k.m.r.t k I D A P G C G c 4 L H F F G G G F G 7 a _ ..^ [ [ ^ { p p { ^ ^ 7 V A B V S A V A ",
"L l p [ ^ / ..^ f _ ,.0.t. ... .` ,.} ' ,.r C H C A S B A H m h S M m A H G A S L t H  .^ Q ^ Q W +.g a *._ ^ - A S A A F A A G ",
"G p t _ _ ^ [ ` k *.f.7.0.t.B.x.p.m.p.0.c.u V C D G G D Y H f u L P U L S A A F G < m _ _ +.[ [ ^ %.c p ` ` ` 7 g S P G G H G F ",
"p & % y t 7 3 7 # A [ ^ Y G m a g l S ! / q 9 g l g z v b g 1 - y p t 9 7 7 7 7 3 o 3 k l g s v G k % 4 T P F q 3 f m c x c k g ",
"q & - 3 p k f p t 3 7 3 > % o 4 q 4 8 4 < - O < 7 - 1 3 , 3 3 3 3 - % 3 t y 8 3 < y r 8 t 8 > % @ p c p p 7 3 o % ; , 3 7 < - , ",
"H r 4 G U L G G L S H A V c v  .` ` [ / T L w 8 J A L N S A D H L B 7 q V.h.7.+.,.:.k.%.c.q.{ a G x.t.q.,.7.` U - q A G A S B G ",
"Y c p L M B B G A V A G L A k W _ / ( Q _ { M t G C H V G G G M V L s p g...{ q. .+.0.%.:.%.f.f L k...0.,.%.x.f.t k G A B G A S ",
"A l q F B W L F G G V B A F c ^ Q Q ^ R ` *.P e G V A G G B G H B L t p g.k.7.g.h.t.0.,. .%.C.f x k.,.t.,.*.m.[ < f G S A L G S ",
"Y t % m B v f c x A L L A F c ^ { { } ` ` ` L w L H S H G B D A P G 7 q ^ _ W L T W ` *.g.g.q.y a [ [ ` _ ^ ^ v - a S G A A S F ",
"r r r f f q < @ ; 7 t q 3 7 7 A H S M S V l y @ l B m m V D V v a t - % - o > > % @ , 7 g v a & - ; - & - % @ o @ - 3 3 - % ; 3 ",
"m [ x. .*.*. .A > > k m m x p k h u : c M l s 5 5 8 8 w 8 ; $ k G H L A g - k A G B M a a a < , A c c f c c s r Y L A S F V S S ",
"%.:.%.q.h. .q.x.L f S F L G L G D C w ! { [ ` / { ( _ _ T g 3 ' [ [ [ _ W 7 l L B V L L L L m a A L U A L L A q f.k.7.g.v.k.m.t.",
"W ,.*.:...:.,.*.` k G V S B H A A D 8 Q / / Q _ T / ` ^ [ Q w Y ^ ^ ^ Q +.q p G G A B F B S A 7 A F A V G B F p [ 0.%.%...| 0. .",
"c / g.0. .0.g.q.^ y A G F L F L G L q V %.^ _ { ` ` ` ^ _ [ r L ..` ` ^ [ a y L A A S A B G A r D V S S D B L y W f.r...0.r.2.o.",
"3 3 7 q r 8 3 3 < = 3 3 7 4 - 7 8 > , 3 L f 4 k B H ^ Q [ [ a t A S ^ ^ W 3 q U H G A G L T c 3 A E A H S U K 0 D ,.j.,.*.+.t.m.",
"t q r a i 8 r k p p p t , 4 A T ^ W W k @ % 4 y t r t y m m 8 @ 8 3 7 , 8 - 4 y t 8 8 3 - 7 - - 2 j y k y r 4 # < y 8 < 4 8 a c ",
"T L F F L L K G H G F P v t ..5.,.h.q.V.V 3 S L L G A x t > ; l H G H m N M N s ; , L ^ F B l k a t < @ t M B V l v f l M m v k ",
"N A S Z Z S A M B F M A P 3 U 5.:.h.[ %.C.8 A A V A A L L m & c F N A F H F L F c , Y { ` / +.` +.[ Q 3 8 E D Z A H H P Y G H D ",
"a M L Y G S L W L K H G A - L c.{ ,.,.{ %.a m A V L S S G F 3 A U G G F A A F S H , B ` _ W { W U _ ,.V < U m H S D V V N m S H ",
"; , 3 q t t q 7 k t f l 8 O 4 t t - - q o o 7 G A F m N G N % # q g B F A A A S L 8 g ` ` ^ / ^ [ Q / L 3 D S L H H G P P K P S ",
"f m A V B A F A p q & 7 c B 3 - c v g f k k t , , 3 & < q q a l s 3 - k P H m M k , - W { { Q ` ] ) { S # 8 l r y y r y y a c g ",
" .0.h.f.c.k.t.h.t.W 7 | [ | A q L H A S G U P k , ` ` / [ ` h.g.f. .t % t 7 & ; , 7 - < f f q 3 r d f 5 7 q 5 q 2 X l n v 2 # 2 ",
"*.0.,.+.$.+. .*.t.W p ` W ` V t A A G H B m V A p ,.t.7.7.*.0.*.:.k.S t L G G W T [ ^ m , 3 k c g v V V D H G H N 5 L *.+.H q V ",
"..q.t.t.f.h.0.q.B.F p ] ] { V l L B B A G H A A f  .t.h.7.t.%...[ g.W f [ _ ^ _ [ ^ ^ / s k P G S G A H G A Z V S t B Q W ~ t G ",
"6 p l m S L L U B 7 i W / _ x p F G L A A L A A r Y [ +.{ t.7.h.k.x.U t { ..` ^ _ Q [ ,.m c G B H H B S Z S H G Y y x +.$.L 7 P ",
"q p i q q q q q 8 q l 7 , f 6 - q 4 < , 8 f s t @ q p y , , 7 t q t 3 % A Q ^ ^ L ^ Y V 7 p B N g l a l g n v n v 7 , g l , % g ",
"L ^ ` / _ [ ] [ $.%...y y A Z S v m N c , @ y M T ^ ^ L f 3 y k a k a < % 7 8 q r t < - - - 7 a g c g k p p - 7 V T Y P T V A l ",
"F ~ ` _ ` ` ) ^ ^ E U q B H B F G S A P l f ` ..[ ` [ [ G r A L G G S m ; U *.h...[ {  .{ f k Y K K H P D V 7 S N.j.a.k.k.+.f.r.",
"L ^ _ ~ ^ / / ) / _ T 6 B H Z F A F B L k k ..W / W / [ P 7 A S A A S H < ..k...q.+.t.h.t.k k A G B N S S A q [ 0...*.+...0.r.+."
};